<?xml version="1.0" standalone="no"?>
<!DOCTYPE svg PUBLIC "-//W3C//DTD SVG 20010904//EN"
 "http://www.w3.org/TR/2001/REC-SVG-20010904/DTD/svg10.dtd">
<svg version="1.0" xmlns="http://www.w3.org/2000/svg"
 width="1125.000000pt" height="1125.000000pt" viewBox="0 0 1125.000000 1125.000000"
 preserveAspectRatio="xMidYMid meet">
<metadata>
Created by potrace 1.14, written by Peter Selinger 2001-2017
</metadata>
<g transform="translate(0.000000,1125.000000) scale(0.100000,-0.100000)"
fill="#000000" stroke="none">
<path d="M5158 10915 c-2 -3 -36 -7 -74 -10 -86 -6 -122 -11 -154 -20 -59 -16
-130 -27 -200 -29 -77 -4 -109 -9 -265 -46 -49 -11 -101 -19 -114 -16 -17 2
-37 -5 -60 -23 -27 -20 -50 -27 -105 -32 -39 -4 -114 -18 -166 -33 -52 -14
-109 -26 -126 -26 -17 0 -37 -7 -44 -15 -17 -21 -94 -62 -130 -70 -16 -4 -30
-11 -30 -16 0 -5 -13 -9 -29 -9 -17 0 -32 -4 -35 -9 -3 -4 -19 -11 -36 -14
-24 -5 -35 -17 -57 -63 -26 -53 -32 -59 -83 -77 -30 -11 -64 -27 -75 -36 -50
-41 -99 -59 -196 -74 -27 -4 -106 -48 -138 -78 -18 -16 -39 -29 -47 -29 -8 0
-35 -11 -60 -25 -25 -14 -49 -23 -54 -20 -5 3 -22 0 -37 -8 -15 -8 -48 -17
-73 -20 -24 -3 -46 -11 -48 -16 -2 -6 -10 -11 -18 -11 -8 0 -45 -26 -83 -57
-38 -32 -86 -67 -107 -78 -43 -22 -220 -198 -230 -227 -3 -10 -9 -18 -14 -18
-6 0 -34 -37 -64 -81 -57 -85 -228 -269 -251 -269 -14 0 -101 -86 -140 -139
-14 -19 -25 -46 -25 -61 0 -14 -16 -49 -35 -77 -19 -29 -35 -57 -35 -63 0 -5
-13 -38 -29 -72 -30 -66 -62 -178 -67 -238 -2 -19 -5 -66 -7 -105 -3 -38 -8
-79 -12 -90 -4 -11 -12 -33 -18 -50 -5 -16 -16 -37 -24 -46 -7 -8 -13 -19 -13
-23 0 -4 -12 -33 -26 -64 -64 -140 -67 -153 -69 -267 -3 -123 -13 -232 -25
-255 -5 -9 -11 -74 -15 -146 -6 -123 -5 -134 15 -174 19 -38 23 -63 26 -184 5
-218 22 -323 58 -366 23 -27 36 -82 36 -155 0 -49 4 -76 14 -84 19 -16 30 -85
27 -166 -2 -60 5 -131 16 -150 26 -49 31 -218 8 -290 -37 -116 -38 -131 -21
-217 9 -46 20 -155 26 -243 9 -161 34 -322 51 -339 5 -6 9 -21 9 -34 0 -24 68
-175 100 -222 9 -14 20 -34 23 -45 16 -57 42 -116 71 -165 18 -30 43 -86 55
-125 13 -38 41 -107 63 -153 33 -69 43 -82 59 -77 16 5 19 1 20 -22 0 -15 3
-21 6 -13 2 8 7 21 9 29 4 11 7 12 16 3 7 -7 20 -12 29 -12 9 0 19 -7 23 -15
3 -8 12 -12 20 -9 9 3 16 -2 18 -13 2 -10 12 -18 23 -18 16 0 21 -8 23 -39 2
-21 -2 -51 -8 -66 -9 -22 -9 -33 1 -52 11 -20 14 -20 17 -5 2 9 8 17 14 17 5
0 8 -7 4 -15 -8 -23 4 -45 25 -45 11 0 19 -7 19 -16 0 -11 6 -14 20 -9 13 4
22 1 26 -9 3 -8 12 -12 20 -9 8 3 14 0 14 -7 0 -6 8 -10 18 -8 11 2 26 -3 35
-11 14 -11 17 -11 17 0 1 9 7 6 19 -8 14 -16 21 -19 30 -10 8 8 11 7 11 -6 0
-14 4 -16 17 -8 15 8 23 0 49 -47 18 -32 42 -66 54 -77 11 -11 28 -28 38 -37
9 -10 22 -18 29 -18 6 0 16 -7 20 -15 5 -8 33 -40 64 -72 71 -75 109 -126 109
-147 0 -9 5 -14 10 -11 6 3 10 21 10 40 0 19 4 36 9 39 4 3 7 -33 6 -79 -2
-77 0 -85 15 -80 15 5 18 -4 24 -55 4 -33 11 -60 15 -60 5 0 9 -17 8 -37 -1
-60 14 -225 23 -263 5 -19 11 -69 15 -110 3 -41 10 -102 15 -135 14 -83 39
-369 44 -490 3 -55 7 -107 11 -116 8 -21 13 -109 14 -262 1 -83 5 -126 11
-122 6 4 10 -13 11 -42 1 -137 11 -288 19 -293 13 -8 22 -152 11 -185 -5 -18
-10 -23 -10 -12 -1 15 -6 17 -31 12 -48 -11 -91 -35 -99 -58 -7 -19 -8 -19
-15 -1 -13 33 -22 -1 -25 -90 -2 -75 0 -86 17 -95 16 -9 20 -21 20 -68 1 -131
4 -163 13 -168 5 -4 9 -21 9 -40 0 -71 33 -187 79 -282 12 -23 21 -47 21 -53
0 -5 5 -10 10 -10 6 0 10 -5 10 -12 0 -22 103 -167 201 -281 58 -69 207 -217
218 -217 6 0 16 -11 22 -24 13 -28 59 -34 59 -7 1 9 3 54 6 101 3 47 9 135 12
195 4 68 11 108 17 105 6 -3 9 -12 7 -20 -7 -45 -8 -350 -1 -350 5 0 9 15 10
33 0 17 2 46 4 62 1 17 5 102 9 190 3 88 8 216 12 285 10 202 11 371 3 376
-12 7 -17 -61 -34 -450 -3 -49 -7 -91 -11 -95 -5 -5 -3 88 6 329 1 8 1 51 0
95 0 44 2 152 5 239 3 88 3 157 -1 153 -8 -7 -10 -36 -19 -222 -4 -71 -9 -152
-10 -180 -10 -155 -15 -265 -20 -485 -6 -249 -13 -356 -23 -345 -6 6 -4 195 2
275 5 49 22 555 31 895 3 116 10 280 15 365 23 362 25 389 36 399 4 3 5 -43 2
-104 -3 -60 -2 -121 2 -135 7 -23 8 -22 10 10 4 86 10 139 19 176 8 34 9 26
11 -56 2 -99 5 -128 14 -138 3 -3 6 17 6 44 0 91 13 214 22 214 6 0 7 -87 4
-212 -5 -234 7 -222 19 17 4 83 10 182 15 220 6 57 7 41 7 -88 0 -87 3 -160 6
-163 8 -9 24 99 26 180 1 16 4 26 8 22 4 -3 6 -56 5 -116 -1 -61 2 -110 7
-110 5 0 12 45 16 100 8 124 25 141 26 28 1 -82 1 -83 11 -33 28 143 25 137
28 70 2 -33 4 -79 4 -102 2 -71 14 -58 21 22 4 42 10 74 13 71 4 -5 6 -34 13
-201 1 -26 5 -12 10 38 14 132 30 129 26 -5 -4 -132 8 -149 19 -28 11 135 31
104 26 -43 -2 -76 15 -45 20 36 8 128 23 116 19 -16 -1 -67 1 -119 5 -114 4 4
9 18 11 30 8 61 15 87 23 87 6 0 7 -54 4 -132 -6 -163 11 -157 22 7 11 167 23
169 21 2 -2 -96 1 -146 8 -144 5 2 11 41 12 87 3 81 7 100 19 88 3 -4 6 -102
6 -220 1 -188 2 -200 8 -103 4 61 9 152 10 203 4 157 20 113 21 -60 1 -160 1
-162 15 -108 8 30 14 78 13 105 -3 81 0 139 8 131 4 -4 6 -74 5 -156 -2 -85 1
-150 6 -150 11 0 22 82 22 168 0 34 4 62 10 62 6 0 10 -74 10 -202 0 -111 2
-199 4 -197 2 2 7 74 11 159 4 85 10 180 15 210 7 51 7 52 9 15 1 -22 2 -128
2 -235 1 -138 3 -179 9 -140 10 70 19 230 20 338 0 54 4 81 10 77 7 -4 9 -82
5 -225 -3 -140 -1 -221 5 -225 6 -4 10 21 10 67 0 137 21 481 28 473 5 -5 3
-451 -2 -523 -2 -18 1 -35 6 -38 9 -6 10 5 13 151 1 55 5 147 10 205 7 92 10
101 18 70 5 -19 9 -55 8 -79 0 -25 4 -40 8 -35 11 11 22 105 20 162 -1 28 7
72 15 80 4 4 7 -27 6 -68 -3 -99 -1 -135 6 -128 3 3 7 32 10 64 3 33 7 75 9
94 2 19 4 58 5 85 1 42 3 46 11 27 5 -13 7 -36 4 -50 -4 -26 -5 -63 -2 -144 2
-77 15 -24 22 89 12 193 23 218 24 54 1 -198 9 -182 30 59 l7 85 8 -57 c9 -66
26 -78 26 -19 0 57 16 60 19 4 1 -26 3 -48 5 -51 9 -8 26 75 26 126 0 32 4 52
11 52 8 0 10 -16 6 -47 -6 -54 2 -113 14 -113 5 0 9 19 9 43 0 112 29 116 32
5 l1 -83 7 75 c4 41 12 89 18 105 9 27 10 23 11 -37 1 -38 5 -68 11 -68 6 0
10 17 10 38 0 49 10 83 22 76 5 -3 8 -35 7 -70 -3 -91 7 -89 14 2 7 88 27 127
27 51 0 -59 16 -61 26 -4 7 38 8 40 15 17 4 -14 8 -41 9 -60 2 -29 4 -24 14
27 16 81 26 90 26 23 0 -60 17 -59 24 0 2 19 5 44 6 55 2 11 8 -16 15 -60 l11
-80 8 57 c9 64 26 78 26 22 0 -21 4 -33 10 -29 6 3 10 21 10 38 0 41 14 66 24
42 3 -9 6 -26 6 -38 0 -18 2 -19 10 -7 5 8 10 26 10 39 0 36 10 19 25 -41 l13
-53 1 42 c1 23 6 45 11 48 6 4 8 11 5 16 -4 5 -1 17 4 26 8 14 10 4 11 -40 0
-36 4 -56 10 -52 6 3 10 24 10 45 0 35 19 69 21 38 8 -110 18 -142 20 -67 1
24 1 47 1 51 -1 3 5 12 13 18 13 11 15 2 16 -61 l2 -74 8 60 c5 33 13 173 19
310 11 275 13 301 25 312 4 5 4 -64 1 -152 -12 -267 -14 -417 -6 -444 9 -36
18 56 26 274 3 94 7 211 9 260 1 50 3 111 4 138 0 26 5 47 10 47 8 0 7 -128
-6 -590 -3 -118 -3 -213 0 -210 11 10 17 114 27 430 11 340 16 400 31 400 7 0
8 -28 4 -77 -3 -43 -8 -172 -11 -288 -3 -115 -7 -250 -8 -300 -2 -49 0 -99 4
-110 9 -25 18 106 24 370 8 306 13 398 25 425 8 19 9 -9 6 -110 -11 -352 -14
-703 -5 -665 5 22 10 78 10 125 0 47 5 157 10 245 5 88 10 215 11 283 1 67 5
124 9 127 13 8 16 -34 7 -105 -6 -44 -5 -66 2 -68 6 -2 8 -9 4 -15 -5 -7 -8
-84 -9 -172 0 -88 -3 -221 -7 -295 -7 -125 -7 -132 7 -95 10 28 16 108 21 265
3 124 8 245 9 270 2 25 5 80 7 123 2 43 7 81 12 84 6 3 7 -63 3 -168 -3 -96
-2 -180 3 -187 11 -19 21 68 22 203 0 117 11 172 23 125 4 -14 5 -84 2 -155
-12 -337 -17 -429 -21 -433 -13 -13 -18 15 -17 96 1 49 -3 102 -8 118 -6 22
-9 5 -11 -71 -2 -55 -4 -116 -6 -135 -7 -62 -3 -148 7 -172 8 -21 9 -20 10 12
0 19 2 49 4 65 2 17 4 40 5 53 0 12 6 22 11 22 6 0 10 -31 11 -72 0 -58 2 -68
10 -48 5 13 12 175 15 360 3 184 7 341 9 348 3 6 10 12 16 12 12 0 9 -219 -7
-583 -5 -107 -4 -147 5 -147 12 0 13 13 17 200 8 382 13 537 20 554 22 56 24
-72 9 -424 -12 -266 -13 -347 -5 -359 15 -25 27 241 29 632 1 90 4 118 14 115
7 -3 14 -31 18 -69 3 -35 6 -50 7 -34 1 17 6 37 12 45 5 9 5 17 -1 21 -6 3 -4
17 6 35 l15 29 1 -25 c1 -14 0 -90 -1 -170 -2 -206 17 -170 26 48 4 101 11
172 17 172 10 0 5 -311 -9 -642 -5 -102 -3 -148 4 -148 15 0 20 85 27 415 7
334 8 361 18 371 8 8 8 3 7 -206 -1 -121 -9 -459 -12 -489 0 -3 1 -28 2 -56 2
-50 2 -50 11 -15 5 19 11 154 14 300 3 146 6 276 9 290 2 14 4 58 5 98 0 40 5
71 10 68 8 -5 8 -121 -3 -576 -4 -164 -2 -217 5 -195 6 17 12 111 15 210 2 99
6 234 9 300 2 66 5 146 5 178 0 31 4 57 10 57 12 0 11 -411 -1 -565 -9 -109
-3 -180 13 -152 5 9 11 126 13 259 4 251 15 442 26 453 8 8 4 -393 -6 -571 -5
-93 -4 -133 4 -138 12 -8 12 -6 16 144 5 226 17 495 22 504 12 19 23 -24 13
-50 -6 -15 -8 -35 -5 -43 7 -18 7 -180 0 -396 -2 -78 -1 -131 4 -120 4 11 11
119 15 240 9 312 18 445 28 445 5 0 6 -113 2 -277 -8 -313 -8 -453 1 -461 3
-3 6 15 6 39 1 24 3 112 5 194 2 83 5 177 7 210 2 33 4 104 5 158 1 53 6 97
11 97 5 0 9 -21 9 -47 -1 -190 2 -286 8 -280 4 4 10 59 13 124 4 80 10 118 19
121 9 3 12 -18 13 -80 0 -94 17 -82 18 14 1 31 5 60 11 63 9 6 12 -16 13 -117
0 -21 4 -38 9 -38 4 0 8 24 8 53 0 62 8 97 23 97 7 0 8 -85 5 -268 -3 -147 -2
-249 2 -227 5 22 11 139 14 260 3 121 10 254 14 295 l9 75 1 -107 c1 -60 6
-108 11 -108 9 0 20 67 22 134 l1 41 9 -40 c4 -22 8 -60 9 -85 l1 -45 13 42
c8 23 11 53 9 66 -3 14 0 33 6 44 8 14 10 4 11 -46 0 -55 2 -62 15 -51 10 8
15 32 16 69 l2 56 9 -65 c5 -36 9 -76 8 -89 0 -43 14 -11 20 42 7 70 24 62 30
-15 l5 -63 9 98 c4 54 10 96 12 94 9 -9 16 -54 18 -114 1 -79 15 -58 17 27 2
126 25 144 32 25 l3 -60 2 71 c1 48 7 75 16 83 11 10 16 8 21 -8 3 -12 4 -30
0 -40 -3 -11 -1 -22 4 -25 13 -8 23 26 17 58 -3 14 -1 28 4 31 5 3 11 -25 15
-62 3 -38 7 -77 8 -88 1 -11 8 28 16 88 8 59 16 106 18 104 2 -3 4 -25 5 -51
0 -25 4 -46 9 -46 8 0 12 11 22 65 4 18 5 18 14 -5 10 -23 11 -20 23 34 8 42
15 55 21 45 8 -12 12 -11 24 5 13 17 15 18 15 3 0 -24 27 -21 35 3 7 23 21 26
28 8 2 -7 8 5 12 27 11 63 16 76 26 70 5 -4 9 -16 9 -27 0 -12 3 -18 7 -15 8
8 7 217 -1 225 -3 3 -6 -20 -6 -51 0 -30 -3 -62 -6 -71 -11 -28 -24 -6 -24 40
0 24 -4 44 -10 44 -5 0 -10 -26 -10 -57 0 -71 -11 -61 -26 25 -11 61 -12 63
-13 24 -1 -54 -25 -53 -29 1 -4 43 -21 50 -23 10 -1 -16 -3 -46 -4 -68 -3 -64
-6 -72 -16 -40 -5 17 -6 38 -3 48 3 9 2 32 -2 50 l-8 32 -5 -29 c-7 -36 -31
-47 -31 -15 0 47 -18 -6 -19 -58 -1 -30 -18 -30 -27 0 -7 21 -7 21 -15 2 -4
-11 -8 -33 -9 -50 -2 -29 -2 -29 -15 10 l-13 40 -14 -33 c-15 -35 -28 -33 -28
5 0 28 -17 31 -22 3 -3 -20 -23 -29 -23 -11 0 5 -3 13 -7 17 -5 4 -8 -6 -8
-22 0 -52 -17 -61 -26 -13 -7 39 -8 41 -15 19 -4 -14 -7 -49 -8 -79 -1 -69 -9
-63 -12 9 -1 30 -8 71 -15 90 l-13 35 -1 -40 c-2 -22 -2 -43 -1 -47 0 -5 -4
-8 -9 -8 -6 0 -13 13 -16 30 -7 32 -24 31 -24 -1 0 -12 -4 -17 -11 -13 -6 3
-9 15 -6 25 3 10 -1 38 -8 61 l-14 43 0 -50 c-2 -70 -16 -88 -25 -29 -3 26 -7
65 -7 88 -1 23 -6 -4 -11 -59 -4 -54 -13 -104 -18 -109 -11 -11 -13 -4 -10 67
1 31 -3 47 -11 47 -8 0 -10 -14 -7 -43 6 -51 -15 -95 -27 -57 -6 20 -8 21 -26
4 -18 -17 -19 -16 -19 21 0 45 -14 38 -28 -15 l-9 -35 -7 43 c-10 57 -22 45
-25 -25 -2 -82 -21 -94 -21 -14 0 55 -2 62 -15 51 -9 -7 -16 -31 -17 -59 l-1
-46 -6 45 c-7 53 -25 56 -29 5 -2 -19 -8 -35 -14 -35 -6 0 -8 8 -6 18 3 11 -1
30 -8 43 l-13 24 -1 -25 c0 -14 -4 -31 -9 -38 -12 -19 -20 79 -14 159 4 44 2
69 -6 73 -11 7 -13 -1 -16 -69 -1 -16 -3 -50 -4 -75 -2 -41 -3 -43 -12 -20 -6
13 -9 36 -8 50 3 50 -1 80 -11 80 -6 0 -10 -33 -10 -77 0 -54 -3 -73 -10 -63
-5 8 -10 41 -10 73 0 31 -4 57 -9 57 -11 0 -21 -25 -21 -51 0 -10 -4 -19 -10
-19 -6 0 -10 28 -10 63 0 44 -3 58 -10 47 -5 -8 -10 -37 -10 -63 0 -30 -4 -46
-10 -42 -5 3 -10 18 -10 33 0 15 -3 38 -7 52 -6 21 -9 14 -18 -35 l-12 -60 -8
63 c-4 34 -10 60 -14 57 -6 -6 -7 -20 -12 -129 -2 -69 -17 -36 -25 56 -7 87
-14 100 -15 32 -1 -27 -3 -58 -5 -69 -2 -11 -5 -34 -6 -52 -5 -52 -18 -50 -19
3 l-1 49 -13 -30 c-8 -16 -14 -50 -15 -74 0 -24 -3 -42 -6 -39 -3 3 -6 60 -6
127 -1 67 -5 121 -10 121 -4 0 -8 -19 -9 -42 -1 -24 -4 -54 -9 -68 -6 -22 -8
-23 -15 -7 -4 10 -5 30 -2 45 2 15 2 47 -2 72 l-7 45 -8 -48 c-11 -63 -26 -70
-26 -11 0 53 -18 51 -24 -2 -2 -16 -4 -33 -5 -37 0 -5 -6 -5 -12 -2 -7 5 -8
48 -4 136 4 89 3 129 -4 129 -6 0 -11 -21 -11 -49 0 -74 -28 -76 -31 -3 -2 56
-18 -41 -23 -147 -4 -58 -9 -107 -12 -110 -3 -3 -4 54 -2 127 2 93 -1 135 -10
144 -9 9 -12 3 -12 -32 0 -40 -1 -42 -14 -24 -14 18 -14 47 -2 176 2 18 -1 25
-11 21 -9 -4 -13 -29 -13 -93 0 -49 -6 -101 -12 -117 -12 -26 -13 -21 -18 57
-4 67 -7 78 -12 50 -4 -19 -7 -42 -7 -50 0 -8 -3 -80 -7 -160 -6 -110 -10
-136 -16 -110 -12 49 -10 244 3 314 13 74 -3 97 -22 32 -21 -72 -40 -54 -21
19 5 18 3 48 -4 75 l-12 45 -2 -70 c-1 -38 -3 -90 -6 -115 -3 -25 -7 -74 -8
-110 -1 -36 -4 -92 -6 -125 l-2 -60 -9 55 c-4 30 -6 61 -3 69 3 8 4 69 4 135
-1 67 -1 126 -1 131 0 6 3 30 7 55 7 41 6 44 -9 31 -10 -7 -17 -26 -17 -42 0
-15 -5 -31 -11 -35 -7 -4 -10 3 -7 22 2 15 -2 29 -9 31 -9 3 -13 -6 -13 -26 0
-17 -3 -31 -7 -31 -5 0 -7 -27 -7 -60 1 -33 -2 -63 -7 -66 -5 -3 -9 11 -9 30
0 52 -16 44 -25 -11 -8 -46 -8 -47 -15 -17 -4 16 -3 81 1 142 4 62 4 125 -1
140 l-7 27 -6 -25 c-4 -14 -8 -87 -9 -162 -3 -94 -8 -142 -16 -150 -10 -10
-12 11 -11 109 2 67 0 126 -4 129 -7 7 -11 -60 -9 -136 1 -19 -3 -44 -8 -55
-5 -11 -11 -31 -13 -45 -2 -14 -5 47 -7 135 -2 154 -16 180 -19 35 -2 -109
-21 -109 -21 0 0 52 -5 102 -10 110 -7 11 -10 6 -10 -20 0 -43 -10 -80 -20
-80 -5 0 -6 43 -3 95 4 68 3 95 -6 95 -7 0 -11 -22 -11 -62 0 -63 -19 -193
-27 -185 -2 3 -5 28 -6 55 -1 67 -14 57 -23 -18 -10 -90 -24 -62 -25 53 l-2
102 -8 -96 c-4 -53 -12 -111 -17 -130 -9 -29 -10 -21 -11 54 -1 51 -5 87 -11
87 -5 0 -10 -11 -10 -24 0 -47 -19 -36 -28 16 l-9 53 -7 -37 c-12 -55 -26 -47
-26 14 0 53 -11 60 -16 11 -2 -16 -7 -44 -12 -63 -9 -30 -10 -24 -11 48 -1 47
-5 82 -11 82 -5 0 -10 -22 -10 -49 0 -46 -19 -85 -21 -44 -1 10 -2 25 -3 33
-2 8 -4 56 -6 105 l-3 90 -6 -72 c-3 -39 -9 -75 -13 -79 -10 -9 -10 0 -9 96 0
68 -1 73 -14 56 -8 -11 -15 -31 -15 -45 0 -13 -3 -22 -6 -19 -3 3 -5 52 -6
109 0 96 -1 102 -13 74 -8 -17 -14 -66 -15 -114 0 -46 -3 -81 -7 -77 -4 3 -6
43 -5 89 1 45 -2 96 -6 112 -9 30 -9 30 -16 6 -11 -31 -25 -10 -27 39 l-1 35
-8 -30 c-5 -16 -13 -43 -18 -60 -10 -29 -10 -29 -12 15 -1 25 -1 55 0 68 1 12
-3 22 -9 22 -6 0 -11 -12 -12 -27 0 -16 -4 -37 -9 -48 -8 -18 -9 -16 -11 10
-1 17 -2 39 -2 50 11 287 12 387 2 360 -6 -16 -15 -127 -21 -245 -11 -249 -23
-429 -27 -415 -3 9 0 211 4 365 2 36 6 99 10 141 8 82 -3 219 -14 165 -3 -16
-12 -31 -19 -34 -10 -3 -12 9 -8 54 3 33 8 112 12 177 4 64 9 117 13 117 3 0
7 -34 8 -77 3 -71 7 -92 17 -82 2 2 7 130 9 284 4 203 3 246 -3 158 -15 -214
-19 -256 -28 -265 -4 -4 -7 92 -6 215 2 163 0 210 -7 177 -5 -25 -11 -106 -13
-180 -2 -74 -7 -180 -10 -235 -13 -242 -17 -530 -7 -515 6 8 11 32 11 53 0 26
4 36 12 31 8 -5 9 -50 3 -168 -13 -275 -22 -402 -25 -371 -4 49 0 349 6 368 3
9 2 27 -2 40 l-8 22 -7 -25 c-4 -14 -8 -52 -9 -85 -1 -33 -5 -80 -9 -105 -7
-43 -7 -44 -14 -15 -3 17 -5 80 -2 140 3 100 7 168 21 385 3 41 7 138 9 215 2
77 7 208 11 291 4 95 3 153 -3 157 -12 7 -10 23 -18 -203 -3 -102 -9 -205 -12
-230 -7 -51 -9 -77 -11 -170 -2 -44 -5 -60 -12 -50 -5 8 -7 48 -5 90 5 110 18
447 19 508 1 28 -2 60 -6 70 -4 10 -7 -7 -8 -38 -1 -108 -10 -275 -15 -300 -3
-14 -8 -110 -11 -215 -3 -104 -7 -209 -7 -233 -1 -23 1 -42 6 -42 4 0 7 19 8
43 2 71 4 80 16 84 13 5 12 -187 -3 -412 -4 -55 -8 -129 -9 -165 -10 -278 -19
-400 -28 -384 -6 10 -8 77 -5 166 3 81 2 150 -2 153 -4 3 -10 -35 -12 -85 -2
-53 -8 -94 -15 -102 -10 -10 -13 13 -15 113 l-1 124 -8 -85 c-4 -47 -10 -140
-14 -207 -4 -68 -12 -123 -16 -123 -5 0 -7 77 -5 171 2 94 0 167 -4 162 -6 -7
-20 -182 -20 -261 0 -13 -4 -20 -10 -17 -6 4 -10 58 -11 128 0 165 -18 123
-28 -68 l-8 -140 -2 155 c-2 107 -5 146 -11 126 -5 -16 -7 -33 -4 -37 2 -4 0
-10 -6 -14 -5 -3 -11 -36 -11 -73 -1 -37 -5 -80 -8 -97 -4 -16 -8 57 -8 163
-1 107 -3 196 -6 198 -2 2 -9 -92 -16 -208 -15 -266 -32 -348 -25 -123 8 266
10 455 3 442 -4 -7 -9 -82 -13 -167 -12 -326 -33 -413 -28 -123 2 114 -1 173
-7 164 -5 -8 -10 -35 -10 -60 -1 -25 -5 -71 -9 -101 l-8 -55 -8 68 c-5 37 -6
85 -2 105 3 21 1 51 -3 67 -8 26 -10 22 -11 -30 -1 -33 -2 -68 -1 -77 2 -11
-5 -18 -14 -18 -15 0 -16 10 -11 92 3 55 2 99 -4 108 -10 16 -12 9 -16 -90 -4
-98 -24 -149 -24 -64 0 63 -19 97 -21 39 -1 -22 -3 -44 -4 -50 -2 -5 -4 -26
-5 -45 l-2 -35 -7 30 c-4 17 -6 98 -5 180 2 172 -10 141 -21 -50 -18 -325 -23
-325 -18 0 7 443 0 445 -23 10 -11 -208 -23 -220 -19 -20 4 204 -9 237 -21 52
-4 -59 -11 -107 -15 -107 -5 0 -7 55 -5 123 3 128 -3 173 -19 146 -5 -8 -10
-42 -10 -76 0 -35 -4 -63 -9 -63 -5 0 -9 76 -9 178 0 191 -1 183 -25 -123 -8
-100 -9 -91 -8 102 1 212 -10 261 -21 92 -3 -49 -10 -92 -15 -95 -6 -4 -6 80
-2 208 4 143 3 210 -4 203 -5 -5 -13 -73 -16 -150 -7 -134 -14 -185 -18 -114
0 19 -1 40 -1 47 8 163 10 470 4 452 -9 -29 -21 -168 -21 -258 0 -42 -4 -61
-10 -57 -7 5 -9 44 -6 113 12 228 15 486 7 466 -8 -19 -20 -178 -21 -287 0
-32 -4 -46 -11 -41 -7 4 -9 57 -5 168 3 88 6 168 7 176 1 8 1 33 0 55 -2 36
-3 38 -12 16 -5 -13 -9 -42 -10 -65 0 -78 -11 -156 -21 -156 -5 0 -7 12 -4 27
3 16 7 141 10 278 3 153 1 233 -4 205 -5 -25 -9 -62 -9 -82 -1 -21 -5 -38 -10
-38 -13 0 -19 65 -14 165 2 49 1 87 -2 83 -7 -6 -12 -60 -14 -130 -1 -27 -5
-48 -11 -48 -6 0 -9 54 -8 140 0 77 -2 143 -6 147 -3 3 -6 -23 -7 -58 0 -68
-11 -110 -22 -92 -4 6 -5 59 -3 117 3 63 1 106 -5 106 -5 0 -9 -10 -10 -22 -1
-22 -1 -22 -9 2 -4 14 -8 47 -9 73 -1 31 -5 46 -11 42 -6 -4 -10 -14 -9 -23 3
-30 -1 -42 -13 -42 -8 0 -10 54 -5 208 3 134 2 188 -4 152 -19 -120 -27 -121
-29 -5 -1 61 -2 117 -1 125 2 13 1 13 -8 0 -5 -8 -10 -35 -9 -61 0 -59 -12
-116 -21 -100 -4 6 -6 32 -4 58 1 27 7 152 12 278 6 127 10 233 10 238 1 14
21 7 21 -8 0 -8 7 -15 15 -15 8 0 15 7 15 16 0 8 5 12 10 9 6 -3 10 -22 10
-41 0 -19 5 -34 10 -34 6 0 10 23 10 51 0 36 4 49 13 46 8 -3 11 -22 10 -56
-3 -62 10 -67 24 -8 l11 42 2 -40 c1 -22 2 -46 1 -52 -1 -7 2 -13 7 -13 9 0
21 64 23 124 1 28 2 29 8 7 8 -28 31 -40 31 -16 0 9 5 26 12 38 l12 22 6 -25
c4 -14 12 -24 18 -23 8 2 12 -11 12 -35 0 -43 15 -76 24 -52 3 8 7 31 9 50 3
28 4 26 6 -15 1 -27 6 -59 10 -69 7 -19 8 -19 15 0 7 19 8 19 21 0 13 -18 14
-17 20 7 4 14 5 29 3 34 -3 4 1 26 8 48 l12 40 1 -32 c1 -39 16 -44 25 -8 10
40 26 29 27 -17 0 -32 2 -38 8 -23 5 11 6 24 4 28 -3 4 0 13 5 20 5 7 12 21
15 32 3 13 5 9 6 -12 1 -38 21 -45 21 -9 0 27 15 42 25 26 5 -8 13 -6 26 6 18
17 19 15 21 -42 1 -47 2 -51 5 -19 3 22 9 45 14 51 5 6 7 19 3 28 -4 9 -1 16
6 16 8 0 11 -14 8 -40 -4 -51 13 -53 27 -3 l11 38 8 -34 8 -34 15 34 c13 30
16 32 22 14 8 -19 8 -19 21 2 13 19 15 20 26 5 10 -14 12 -13 18 6 9 27 26 20
27 -11 0 -18 4 -15 17 13 14 31 16 33 20 13 4 -25 18 -30 25 -10 3 8 10 6 21
-8 14 -18 15 -18 16 -2 0 18 30 25 30 6 0 -6 9 -1 20 12 18 23 19 23 20 4 1
-19 1 -19 14 -2 8 10 20 15 30 11 9 -3 16 -1 16 5 0 19 22 12 27 -9 11 -41 21
-7 28 92 6 76 10 97 16 80 5 -13 6 -61 4 -108 -4 -55 -2 -84 5 -84 5 0 11 19
11 43 1 40 2 57 7 155 1 23 7 42 12 42 6 0 10 -36 10 -89 0 -50 -4 -93 -10
-96 -16 -10 -12 -55 5 -55 12 0 15 17 17 88 1 92 2 99 11 122 3 8 8 22 10 30
3 8 6 -4 6 -27 1 -54 19 -56 27 -3 7 43 24 55 25 18 0 -17 4 -13 17 17 l17 40
6 -35 6 -35 12 30 13 30 13 -30 13 -30 7 39 c7 34 9 37 20 23 11 -16 14 -16
25 -2 10 12 15 13 20 4 11 -17 30 -2 30 24 0 18 2 19 10 7 5 -8 10 -26 10 -40
1 -21 3 -18 15 13 18 51 25 57 25 21 1 -53 23 4 26 66 3 74 4 78 13 55 5 -11
6 -37 3 -57 -5 -38 4 -48 26 -26 9 9 13 7 18 -6 6 -16 8 -16 25 0 18 16 19 16
19 -5 0 -32 24 -21 31 15 4 22 7 11 13 -42 4 -41 4 -80 -1 -90 -12 -25 -11
-83 2 -86 6 -2 12 37 15 94 3 53 8 99 12 103 12 12 18 -50 11 -115 -5 -36 -6
-87 -3 -115 6 -49 6 -49 12 -15 4 19 10 75 13 125 10 165 22 108 20 -97 -2
-112 -1 -180 1 -153 8 107 16 155 25 155 5 0 9 -33 9 -72 1 -65 2 -71 15 -55
8 11 11 31 8 50 -3 18 0 48 5 67 9 31 10 25 12 -50 1 -47 6 -98 10 -115 7 -28
8 -28 9 12 0 23 5 44 10 48 9 5 15 -15 24 -85 2 -14 6 11 10 55 12 126 25 157
26 62 1 -49 5 -76 11 -72 6 3 10 15 10 26 0 10 5 19 10 19 6 0 10 -9 10 -19 0
-11 5 -23 10 -26 6 -3 10 4 10 17 0 35 11 68 22 68 6 0 7 -11 4 -24 -7 -28 11
-46 20 -22 9 23 24 20 24 -4 0 -11 5 -20 10 -20 10 0 13 19 11 80 -2 52 16 73
24 29 3 -19 5 -43 4 -54 -1 -11 -1 -40 1 -65 2 -38 4 -32 12 35 28 249 27 248
24 46 -3 -166 -6 -196 -20 -206 -9 -7 -21 -26 -27 -43 -8 -23 -15 -29 -30 -25
-16 5 -19 0 -19 -27 0 -23 -5 -33 -19 -37 -13 -3 -22 -20 -30 -60 -6 -31 -18
-61 -27 -67 -11 -8 -17 -34 -20 -86 -2 -41 -6 -95 -9 -120 -7 -65 6 -179 19
-177 7 1 12 -26 14 -75 2 -43 7 -78 12 -78 6 0 10 9 10 19 0 35 20 34 21 -1 0
-18 4 -42 9 -53 9 -21 9 -21 15 8 5 27 15 34 15 11 0 -23 29 -67 30 -46 0 7 5
10 10 7 6 -3 11 -60 12 -128 l2 -122 3 109 c2 67 8 116 16 125 19 23 24 -81
11 -249 -6 -80 -9 -190 -8 -245 2 -56 -2 -115 -9 -135 l-11 -35 -6 35 c-3 19
-3 71 1 115 12 124 10 283 -2 263 -5 -10 -12 -92 -15 -183 -5 -172 -21 -265
-25 -150 -4 106 -5 114 -12 121 -4 4 -7 -13 -7 -37 0 -25 -4 -49 -9 -54 -5 -6
-11 -21 -14 -35 -3 -17 -5 -13 -6 14 -1 37 -16 43 -16 8 -1 -10 -4 -41 -9 -71
-8 -55 -8 -55 -21 -25 -11 28 -12 28 -19 7 -4 -13 -12 -23 -17 -23 -12 0 -12
320 0 339 11 17 3 43 -10 35 -5 -3 -9 -79 -9 -168 0 -126 -3 -170 -15 -192
-14 -28 -15 -25 -16 61 l0 90 -13 -48 c-13 -47 -26 -72 -26 -49 0 7 -4 12 -10
12 -10 0 -16 -30 -26 -134 -4 -43 -9 -64 -14 -56 -5 8 -7 17 -4 21 2 4 0 10
-5 14 -5 3 -13 -16 -17 -41 -5 -33 -12 -48 -25 -51 -10 -3 -23 -19 -29 -37
-11 -28 -13 -29 -19 -11 -6 16 -10 10 -15 -26 -4 -25 -3 -54 1 -65 6 -17 8
-17 14 6 6 22 7 23 8 4 1 -12 7 -27 15 -33 12 -10 16 -8 21 10 7 20 8 20 17 5
11 -20 28 -12 28 15 0 16 5 19 20 14 11 -4 20 -2 20 4 0 19 30 12 30 -6 1 -14
4 -12 15 7 17 30 23 18 28 -55 l3 -50 8 63 c10 69 15 71 33 9 9 -34 11 -37 12
-15 1 15 5 30 11 33 9 5 14 -16 13 -52 -1 -7 3 -13 8 -13 5 0 9 10 9 23 0 12
4 28 9 35 12 19 21 -8 21 -59 0 -24 4 -38 10 -34 6 3 10 27 10 52 0 39 2 44
15 33 9 -8 16 -32 16 -64 1 -28 3 -40 6 -26 8 54 14 70 24 70 7 0 9 -11 6 -30
-4 -16 -3 -32 2 -34 5 -3 11 17 15 44 7 53 26 69 26 23 0 -16 5 -35 10 -43 7
-11 10 -3 10 28 0 26 4 41 10 37 6 -3 10 -19 10 -34 0 -38 11 -46 27 -19 10
18 12 20 13 6 0 -10 4 -18 10 -18 5 0 13 8 19 18 13 22 28 7 34 -33 4 -27 4
-27 6 7 1 46 16 57 29 21 6 -17 11 -21 11 -11 2 29 19 30 35 1 14 -26 15 -27
16 -5 0 26 8 28 25 5 11 -15 13 -15 19 5 9 28 24 28 29 0 4 -24 4 -23 23 29 5
14 9 10 16 -17 9 -30 11 -32 20 -16 5 10 8 31 6 47 -3 18 -1 28 6 26 6 -2 13
-21 16 -43 7 -52 18 -31 26 47 7 78 14 89 14 23 0 -73 16 -87 23 -20 10 101
26 101 28 1 l2 -90 7 77 c6 76 20 112 34 89 11 -17 26 -13 26 6 0 14 2 14 20
-2 19 -18 20 -17 20 3 0 11 5 24 10 27 6 3 10 -1 10 -9 0 -21 17 -20 29 2 9
15 12 15 22 2 8 -11 12 -12 16 -2 7 17 23 15 23 -3 0 -22 16 -18 27 8 11 22
11 22 18 -6 6 -23 10 -25 22 -15 11 9 16 9 24 -3 8 -12 11 -11 23 4 13 16 14
16 19 -4 6 -24 27 -17 27 9 0 13 5 12 20 -8 11 -14 20 -19 20 -12 0 20 20 14
20 -6 0 -34 14 -34 26 0 l12 33 7 -27 c4 -16 11 -28 15 -28 5 0 10 12 13 28
l4 27 14 -33 14 -33 12 33 c11 32 12 32 19 9 6 -22 8 -22 20 -7 11 16 13 15
28 -6 l16 -22 0 22 c0 24 10 28 28 10 9 -9 13 -6 20 12 l9 24 6 -23 c4 -18 10
-21 26 -16 18 5 22 1 28 -26 6 -32 6 -32 15 -8 9 23 10 23 23 6 7 -11 11 -25
8 -33 -3 -8 0 -14 6 -14 6 0 11 15 11 33 0 48 16 66 24 27 3 -18 7 -44 8 -59
1 -14 4 -1 8 29 l6 55 16 -34 c15 -32 15 -32 21 -10 l7 24 15 -22 c9 -12 22
-20 30 -17 9 4 17 -5 24 -28 7 -25 9 -27 10 -10 1 25 31 31 31 6 0 -14 2 -14
16 -3 14 11 18 10 30 -6 14 -18 14 -18 14 2 0 19 30 55 30 37 0 -5 7 0 16 11
13 17 16 18 25 5 8 -13 11 -13 22 1 8 10 25 15 47 14 19 -1 40 2 47 7 7 6 14
5 18 -2 5 -8 14 -2 26 17 10 15 19 22 19 15 0 -7 4 -11 9 -8 12 8 22 62 15 81
-11 27 -24 16 -25 -22 l-1 -38 -10 45 c-15 73 -17 76 -33 54 -13 -18 -14 -17
-15 14 0 33 -8 40 -27 21 -7 -7 -12 -1 -17 23 -5 24 -9 29 -15 19 -15 -23 -31
-2 -31 42 l0 42 -17 -34 -17 -34 -11 39 c-10 31 -14 35 -20 22 -10 -25 -25
-12 -25 20 l0 27 -19 -25 -19 -24 -4 34 -3 35 -17 -30 -16 -30 -6 25 c-3 14
-7 34 -9 45 -3 12 -5 8 -6 -12 -2 -71 -31 -82 -31 -12 0 23 -4 38 -10 34 -5
-3 -7 -12 -4 -20 3 -7 0 -24 -6 -36 -11 -20 -13 -20 -22 -6 -13 24 -28 21 -29
-5 -1 -18 -3 -16 -11 10 -10 30 -28 44 -28 22 0 -5 -4 -10 -9 -10 -6 0 -11 17
-13 38 -4 38 -11 32 -23 -23 -7 -27 -8 -28 -15 -10 -5 11 -9 38 -10 60 -2 44
-5 40 -15 -19 -5 -29 -9 -36 -16 -25 -5 8 -9 28 -9 44 l-1 30 -16 -35 c-15
-32 -17 -33 -21 -12 -5 29 -24 24 -33 -9 -6 -22 -7 -22 -8 -3 -1 12 -8 27 -16
34 -13 11 -15 8 -15 -14 0 -30 -14 -35 -25 -8 -6 14 -9 12 -20 -12 l-13 -30
-7 35 -8 34 -13 -30 -12 -30 -13 28 -13 28 -12 -22 -12 -22 -6 21 c-9 27 -26
19 -27 -11 0 -17 -5 -13 -20 18 -17 37 -18 38 -19 13 0 -16 -4 -28 -10 -28 -5
0 -10 11 -10 24 0 30 -15 42 -24 20 -5 -13 -9 -14 -20 -5 -11 10 -17 8 -25 -6
-10 -17 -11 -16 -17 5 -6 22 -24 31 -24 12 0 -18 -18 -10 -25 10 -10 31 -25
14 -25 -28 l-1 -37 -14 38 c-18 51 -21 53 -30 20 l-8 -28 -13 30 -13 30 -1
-30 c-1 -16 -5 -39 -10 -50 -9 -19 -9 -19 -16 3 -7 24 -20 29 -27 10 -6 -18
-18 -5 -20 21 -2 31 -14 25 -21 -11 l-7 -33 -13 24 c-13 23 -14 23 -24 5 -10
-18 -11 -17 -21 9 -6 16 -16 25 -22 22 -6 -4 -16 1 -23 10 -12 17 -13 17 -20
-1 -7 -19 -8 -19 -21 0 -13 17 -14 17 -21 -9 l-7 -28 -17 23 -17 23 -6 -22
c-6 -23 -27 -29 -27 -8 0 22 -20 -17 -20 -40 0 -25 -15 -31 -23 -10 -4 9 -8 9
-15 -2 -14 -19 -32 -5 -33 27 -1 23 -2 22 -11 -10 -10 -38 -29 -53 -26 -20 1
9 0 26 -1 37 -2 20 -2 20 -16 1 -12 -16 -17 -17 -30 -6 -13 11 -15 9 -16 -11
-1 -13 -1 -27 0 -31 0 -5 -6 -8 -14 -8 -8 0 -15 8 -15 17 0 31 -13 4 -25 -54
-10 -44 -13 -50 -14 -26 -1 43 -20 52 -27 13 -4 -17 -11 -33 -16 -36 -9 -6 -3
263 9 361 2 22 4 87 3 145 0 104 11 158 23 108 7 -27 2 -137 -8 -168 -5 -14
-2 -20 9 -20 13 0 16 14 16 83 0 45 3 92 6 104 10 36 24 16 24 -35 1 -37 3
-43 11 -29 5 9 8 21 5 26 -3 4 1 17 9 27 13 17 14 16 15 -23 0 -31 4 -43 15
-43 8 0 15 8 16 18 0 9 6 -1 13 -23 11 -38 12 -39 20 -15 7 24 8 23 20 -15
l13 -40 11 40 c7 22 12 47 13 55 0 8 6 -3 14 -25 l13 -40 2 33 c4 53 5 55 17
59 6 2 13 -4 15 -14 2 -13 8 -9 20 17 17 35 18 35 18 8 0 -16 5 -28 10 -28 6
0 10 7 10 15 0 31 19 14 25 -22 10 -60 12 -61 20 -11 10 65 25 50 26 -25 1
-77 17 -49 18 31 1 28 6 52 11 52 6 0 10 -20 10 -45 0 -25 5 -45 10 -45 6 0
10 15 10 34 0 55 19 52 26 -4 6 -48 24 -71 24 -30 0 11 5 20 10 20 6 0 10 -14
10 -31 0 -34 20 -31 21 4 0 17 5 12 19 -18 l18 -40 7 28 c10 40 24 16 26 -43
l0 -45 13 48 c14 50 28 74 25 41 -4 -39 1 -74 11 -74 6 0 10 7 10 15 0 30 18
14 25 -23 4 -20 10 -30 12 -22 13 42 16 45 22 22 9 -36 26 -31 29 8 4 40 22
67 22 33 0 -12 5 -25 10 -28 6 -4 10 11 10 37 0 54 9 90 21 82 12 -7 11 -42
-1 -46 -7 -2 -5 -19 3 -48 l14 -45 7 33 c9 38 26 43 26 8 0 -47 19 -37 22 11
4 66 23 56 24 -12 2 -67 14 -87 15 -24 1 53 12 88 23 71 4 -7 7 -22 6 -35 -1
-12 -1 -33 0 -47 l2 -25 12 29 c14 31 22 26 36 -22 8 -25 8 -25 9 9 1 54 12
99 24 99 6 0 8 -22 5 -57 -3 -32 -2 -69 1 -83 7 -23 8 -22 14 14 3 21 4 50 1
65 -3 14 2 58 9 96 l15 70 1 -57 c1 -57 20 -84 22 -30 0 15 4 36 9 47 6 17 9
13 15 -20 3 -22 8 -44 9 -50 2 -5 6 28 10 75 4 47 11 89 16 94 7 7 10 0 10
-18 0 -40 16 -23 25 26 6 35 8 39 15 23 5 -11 9 -35 9 -54 1 -43 7 -38 15 13
8 47 14 56 26 36 10 -16 12 -15 28 15 11 18 11 18 12 -8 0 -37 23 -31 30 9 6
27 6 26 13 -15 9 -51 18 -47 33 17 l12 47 1 -40 c1 -22 6 -58 10 -80 l9 -40 1
50 c1 28 4 60 7 73 6 21 8 22 24 7 16 -15 18 -14 24 10 5 18 12 25 21 21 10
-3 16 5 21 29 4 21 11 32 19 29 12 -5 25 61 25 130 0 24 -2 27 -15 16 -17 -14
-17 -15 -32 20 -10 20 -12 22 -12 6 -1 -18 -2 -18 -20 -2 -13 12 -21 14 -26 6
-4 -6 -15 -8 -25 -5 -10 3 -21 1 -24 -4 -4 -6 -13 -8 -20 -5 -7 3 -19 -2 -26
-10 -7 -9 -16 -14 -20 -11 -5 3 -15 -3 -22 -12 -21 -28 -61 -48 -66 -33 -3 7
-9 2 -16 -12 -7 -12 -19 -22 -28 -20 -9 1 -19 -6 -23 -15 -6 -17 -7 -17 -19
-1 -12 16 -14 15 -27 -10 l-13 -27 -4 35 c-5 53 -19 57 -30 9 l-10 -44 -1 50
c-1 56 -14 88 -25 60 -8 -21 -26 -10 -27 18 0 19 -2 19 -11 -5 -10 -30 -28
-38 -28 -13 0 8 -4 15 -10 15 -5 0 -10 -9 -10 -19 0 -30 -20 -36 -28 -10 -6
21 -7 19 -12 -14 -5 -40 -23 -51 -28 -17 -2 11 -8 20 -13 20 -6 0 -8 -4 -5 -9
3 -5 -1 -14 -9 -21 -13 -11 -15 -8 -15 17 0 38 -10 47 -25 26 -11 -15 -14 -12
-23 27 -7 33 -10 38 -11 18 -1 -15 -5 -29 -10 -32 -13 -9 -21 19 -21 75 0 27
-4 49 -9 49 -4 0 -6 -10 -4 -22 2 -13 -3 -32 -11 -43 -14 -19 -15 -17 -16 28
0 26 -4 47 -10 47 -5 0 -10 -4 -10 -10 0 -5 -4 -10 -9 -10 -4 0 -12 28 -17 63
-6 48 -9 55 -12 30 -5 -48 -19 -40 -27 15 l-8 47 -13 -40 c-12 -40 -12 -40
-13 -8 -2 65 -31 91 -31 26 0 -20 -3 -34 -6 -30 -3 3 -6 29 -6 59 0 82 3 125
9 108 2 -8 7 -21 9 -29 9 -27 19 1 24 65 6 73 21 86 27 22 4 -54 13 -62 13
-12 0 21 5 102 11 179 10 144 3 347 -12 310 -4 -11 -8 -42 -8 -69 -1 -84 -11
-44 -17 70 -3 60 -7 110 -9 112 -1 2 -6 -45 -10 -103 -4 -58 -11 -108 -16
-111 -5 -3 -9 40 -9 101 0 68 -4 104 -10 100 -5 -3 -10 -30 -10 -58 0 -76 -19
-98 -21 -24 -2 70 -2 74 -11 82 -3 4 -9 -24 -13 -62 -9 -93 -13 -100 -15 -23
-1 36 -5 85 -9 110 -7 45 -7 45 -14 -30 -5 -41 -10 -102 -13 -135 -9 -93 -14
-78 -14 41 0 74 -3 104 -10 94 -5 -8 -10 -40 -11 -70 -1 -93 -17 -106 -19 -15
-1 44 -2 87 -1 96 1 8 -3 26 -8 40 -8 19 -10 7 -11 -56 -3 -121 -15 -147 -25
-55 l-9 75 -15 -75 c-13 -63 -16 -69 -19 -40 -5 52 -22 62 -22 13 0 -43 -19
-72 -21 -31 -1 32 -9 102 -13 105 -1 2 -8 -63 -15 -144 -7 -82 -14 -152 -16
-158 -2 -5 -4 40 -4 100 -1 155 19 518 30 530 5 5 9 0 9 -15 0 -33 11 -19 16
22 14 100 33 101 35 0 2 -65 2 -64 10 28 5 52 13 131 17 175 9 79 9 79 11 22
0 -32 5 -56 10 -53 4 3 6 17 4 30 -7 35 16 99 32 92 8 -3 17 4 20 15 7 20 25
26 25 8 0 -8 5 -7 16 1 17 15 15 61 -3 68 -7 2 -13 -4 -13 -13 0 -14 -3 -15
-15 -5 -12 10 -18 10 -30 0 -12 -10 -15 -9 -15 4 0 14 -4 15 -20 6 -16 -9 -22
-8 -26 4 -10 25 4 34 46 32 46 -2 48 4 19 45 -17 24 -24 27 -39 19 -13 -7 -21
-7 -25 0 -14 22 -25 -4 -25 -56 0 -31 -4 -54 -10 -54 -6 0 -10 7 -8 17 4 19
-47 36 -95 31 -44 -4 -49 -34 -8 -43 36 -8 41 -30 10 -38 -26 -7 -77 2 -85 14
-3 5 -10 7 -15 4 -5 -4 -9 1 -9 9 0 8 -9 20 -19 26 -30 16 -31 62 -2 78 16 8
27 9 36 2 9 -8 14 -6 19 5 4 10 11 13 18 8 7 -4 25 -8 41 -9 24 -2 27 2 27 32
0 41 -17 54 -22 17 l-4 -28 -17 35 c-16 34 -16 35 -17 8 0 -16 -4 -28 -10 -28
-5 0 -10 15 -10 34 0 47 -17 55 -29 14 -8 -29 -9 -30 -10 -8 -1 14 -6 32 -11
40 -7 12 -11 10 -18 -10 l-10 -25 -7 28 c-8 31 -25 36 -25 8 0 -11 -4 -23 -10
-26 -6 -3 -10 5 -10 19 0 34 -18 42 -26 11 -12 -48 -21 -15 -16 58 3 45 0 82
-6 93 -10 17 -12 16 -12 -11 -1 -16 -5 -39 -9 -50 -7 -18 -9 -17 -18 10 l-10
30 -7 -42 c-12 -68 -26 -50 -27 35 -1 42 -4 64 -6 47 -10 -82 -25 -98 -38 -42
l-8 32 -6 -30 -7 -30 -7 40 c-4 22 -7 62 -6 88 2 60 -6 69 -25 26 -12 -28 -15
-30 -15 -12 -1 12 -5 24 -10 27 -11 7 -21 -43 -21 -107 0 -45 -2 -49 -13 -32
-10 13 -16 15 -21 6 -10 -16 -26 -4 -26 19 0 11 -9 24 -20 30 -17 9 -20 21
-20 76 0 43 4 63 11 59 5 -4 8 -12 6 -18 -2 -7 0 -20 5 -30 7 -15 12 -16 24
-6 11 9 14 8 14 -9 0 -25 10 -52 19 -52 14 0 7 133 -7 138 -7 2 -27 17 -45 33
-17 16 -37 29 -44 29 -7 0 -13 9 -13 19 0 31 -17 34 -24 4 -7 -26 -7 -26 -22
-5 -8 12 -21 19 -29 16 -8 -4 -15 -1 -15 5 0 19 -16 12 -28 -11 -10 -22 -11
-21 -11 11 -1 33 -2 33 -20 17 -17 -16 -19 -16 -25 1 -7 16 -9 15 -26 -7 -11
-14 -20 -19 -20 -12 0 26 -18 1 -25 -35 -7 -35 -8 -36 -16 -15 -9 24 -25 29
-32 10 -4 -10 -8 -9 -16 2 -9 13 -11 13 -11 -1 0 -22 -26 -45 -32 -28 -6 19
-28 1 -28 -23 0 -15 -3 -18 -12 -10 -13 10 -40 9 -68 -1 -34 -12 -60 -15 -66
-5 -3 5 -11 2 -18 -8 -7 -9 -18 -14 -24 -10 -6 3 -16 -3 -22 -14 -6 -11 -16
-18 -22 -14 -5 4 -14 1 -18 -7 -7 -10 -11 -10 -23 0 -11 8 -17 9 -22 1 -5 -8
-11 -8 -20 0 -11 9 -17 7 -26 -8 -7 -11 -19 -18 -26 -15 -7 3 -13 -2 -13 -12
0 -10 -7 -15 -18 -13 -11 2 -26 -3 -34 -9 -21 -18 -64 -21 -60 -5 1 8 -2 11
-8 7 -5 -3 -10 -16 -10 -28 0 -22 0 -22 -19 2 -12 16 -20 20 -25 12 -4 -7 -16
-9 -27 -6 -15 5 -19 1 -19 -14 0 -24 -10 -27 -28 -9 -9 9 -12 9 -12 -1 0 -21
-24 -6 -31 20 -7 24 -7 24 -8 -3 -1 -35 -21 -37 -21 -3 0 25 -14 34 -24 16 -3
-5 -15 -7 -26 -4 -15 4 -20 0 -20 -16 0 -14 -9 -25 -25 -31 -14 -5 -25 -15
-25 -21 0 -6 -8 -19 -19 -28 -10 -9 -20 -25 -22 -36 -3 -11 -10 -20 -17 -20
-8 0 -20 -9 -28 -19 -13 -19 -14 -18 -14 12 0 22 -5 32 -15 32 -11 0 -15 -12
-17 -42 -1 -35 -2 -30 -8 22 -4 36 -3 72 1 80 6 11 8 10 9 -7 0 -13 4 -23 9
-23 14 0 21 27 21 76 0 36 -3 44 -19 44 -13 0 -21 10 -27 33 -7 30 -8 29 -13
-23 -7 -69 -21 -44 -21 39 0 82 -13 84 -26 4 l-12 -68 -3 85 c-2 47 -3 97 -3
113 -1 15 -4 27 -8 27 -5 0 -8 -4 -8 -10 0 -25 -19 -6 -23 23 -4 29 -5 30 -12
10 -14 -42 -24 -13 -18 52 5 56 4 65 -11 65 -13 0 -16 -13 -17 -87 -2 -110 -7
-191 -14 -221 -4 -18 -8 -20 -19 -10 -9 8 -11 17 -5 23 5 5 9 33 9 61 0 29 4
55 9 58 8 5 8 55 -2 178 -4 56 -17 58 -19 2 -2 -75 -3 -82 -10 -89 -3 -3 -3
-32 0 -63 6 -69 6 -85 -5 -191 l-8 -84 -14 47 c-9 33 -16 44 -22 34 -8 -12
-15 48 -11 92 1 8 4 103 8 210 3 107 7 215 9 240 2 25 4 69 4 97 1 48 3 53 23
50 19 -2 24 4 29 33 4 27 7 31 13 18 4 -9 5 -21 2 -27 -4 -5 -2 -12 4 -16 6
-4 17 9 25 27 12 27 14 29 15 11 0 -31 18 -29 26 2 4 14 9 24 12 21 11 -12 32
49 32 93 0 62 11 121 21 121 5 0 9 -10 10 -22 1 -15 5 -7 12 19 12 41 27 67
27 45 0 -7 5 -12 10 -12 6 0 10 16 10 35 0 24 -6 37 -20 45 -11 6 -20 20 -20
30 0 12 -7 20 -18 20 -11 0 -24 15 -35 40 -21 49 -21 47 3 53 14 3 20 14 21
34 1 23 3 20 11 -14 11 -52 28 -56 28 -8 0 40 14 46 26 13 6 -18 8 -10 11 32
5 91 13 127 24 108 11 -20 49 -12 68 15 13 19 15 19 27 3 11 -15 13 -14 19 16
12 58 16 68 31 68 8 0 14 4 14 10 0 5 7 7 15 4 8 -4 22 0 31 7 13 10 17 10 25
-2 6 -10 9 -10 9 -1 0 26 30 12 31 -15 l1 -28 10 27 c7 20 16 27 31 25 14 -1
23 5 28 23 6 21 7 22 8 5 2 -17 4 -16 17 8 13 23 35 33 66 28 4 0 12 9 18 20
7 12 18 18 26 15 7 -3 28 8 45 24 17 15 37 26 44 24 7 -3 19 2 28 10 8 8 17
12 21 9 3 -3 12 -1 19 5 8 7 17 9 20 5 4 -3 13 0 21 6 8 7 20 10 25 7 5 -4 13
-2 16 4 5 8 11 8 20 0 10 -8 15 -8 20 0 4 6 23 11 44 10 20 -1 38 -1 41 0 14
6 280 6 280 1 0 -4 18 -6 40 -5 22 1 43 -2 46 -7 3 -5 13 -5 24 1 13 7 19 6
23 -4 3 -7 18 -12 37 -11 19 1 34 -4 37 -12 3 -8 11 -12 19 -9 14 5 64 -15 64
-26 0 -5 11 -8 25 -8 19 0 25 -5 25 -21 0 -18 3 -19 15 -9 12 10 16 9 21 -4 4
-10 13 -15 21 -12 8 3 18 -4 25 -19 8 -18 14 -22 19 -13 5 8 11 4 20 -15 6
-14 15 -24 19 -22 4 2 22 -11 41 -30 19 -19 40 -35 47 -35 6 0 12 -5 12 -10 0
-6 11 -15 25 -20 14 -5 25 -16 25 -24 0 -9 6 -13 14 -10 8 3 19 -3 26 -16 6
-11 15 -18 20 -15 6 3 15 -5 21 -19 6 -13 17 -22 24 -20 7 3 16 1 19 -5 4 -6
13 -8 21 -4 10 3 15 -1 15 -12 0 -12 6 -16 20 -12 12 3 21 -1 25 -12 5 -16 48
-41 72 -41 7 0 13 -4 13 -10 0 -5 9 -10 20 -10 10 0 24 -8 29 -17 8 -14 11
-15 11 -3 0 11 6 9 20 -8 10 -12 21 -18 25 -13 3 6 20 2 41 -10 19 -10 39 -17
44 -14 4 2 13 -2 20 -10 9 -11 16 -12 25 -5 10 8 15 6 20 -10 4 -13 12 -19 21
-16 7 3 16 1 20 -5 3 -6 12 -8 19 -5 7 2 17 0 23 -6 5 -5 26 -10 46 -11 20 -1
36 -5 36 -10 0 -4 27 -7 60 -4 34 2 64 -1 70 -7 14 -14 32 12 24 36 -2 9 -1
19 4 22 6 3 13 -4 17 -17 l7 -22 8 25 c15 45 11 60 -17 72 -16 6 -34 10 -41 9
-7 -1 -15 5 -18 14 -4 9 -12 14 -20 11 -7 -3 -18 2 -24 9 -7 8 -16 12 -21 10
-4 -3 -13 4 -19 15 -7 12 -18 19 -25 16 -8 -3 -17 -1 -20 4 -3 5 -12 7 -20 3
-8 -3 -15 0 -15 6 0 6 -11 16 -25 21 -14 5 -25 14 -25 20 0 5 -9 10 -20 10
-11 0 -20 7 -20 15 0 10 -7 15 -17 13 -15 -2 -19 5 -21 40 -3 44 9 55 27 25
10 -17 10 -17 11 0 0 26 23 16 31 -14 7 -23 7 -23 8 -2 1 25 17 38 26 22 4 -5
13 -8 19 -6 7 3 19 1 27 -3 8 -6 16 -5 20 2 4 7 11 3 18 -10 6 -12 17 -19 25
-16 8 3 17 1 21 -5 12 -21 25 -11 26 22 2 30 2 30 8 -8 4 -26 11 -40 21 -41
26 -2 68 -22 72 -36 4 -11 8 -11 20 0 13 10 17 9 22 -10 6 -22 7 -22 21 -4 13
18 14 17 21 -10 7 -27 7 -27 15 -5 10 24 29 20 30 -7 0 -10 6 -5 14 13 12 26
14 27 15 8 0 -29 16 -38 29 -16 9 17 10 17 16 1 4 -10 16 -18 26 -18 10 0 19
-7 19 -15 0 -8 7 -15 15 -15 8 0 15 5 15 11 0 8 6 7 17 -2 13 -11 17 -11 20
-1 7 18 23 4 23 -19 0 -19 1 -19 16 -4 10 9 19 12 23 7 3 -5 23 -8 43 -7 21 2
40 0 43 -5 3 -5 23 -11 45 -15 22 -4 42 -11 46 -16 3 -5 10 -7 15 -3 5 3 16 1
24 -6 10 -9 16 -7 24 7 8 14 11 15 11 3 0 -12 4 -10 15 4 15 20 15 20 30 0 12
-15 16 -16 24 -5 7 11 11 10 20 -7 7 -13 17 -19 26 -16 10 4 15 0 15 -11 0
-11 5 -15 15 -11 8 3 21 -4 30 -17 8 -12 15 -18 15 -13 0 5 19 -9 41 -30 23
-22 51 -48 63 -59 11 -11 23 -20 26 -20 7 0 36 -24 58 -47 9 -10 22 -18 29
-18 7 0 13 -4 13 -8 0 -4 20 -30 45 -57 25 -28 45 -55 45 -61 0 -6 6 -17 14
-23 7 -6 19 -32 26 -56 7 -25 16 -45 20 -45 4 0 13 -19 20 -42 8 -24 20 -52
27 -63 7 -11 13 -30 13 -42 0 -13 9 -32 20 -43 12 -12 20 -33 20 -54 0 -38 18
-96 30 -96 5 0 11 -39 15 -87 5 -54 13 -92 21 -98 13 -10 36 -187 27 -211 -2
-6 2 -14 11 -17 14 -6 33 -118 27 -162 -4 -31 -18 -39 -26 -16 -9 30 -25 16
-26 -22 l-1 -32 -11 39 c-10 33 -14 37 -25 24 -14 -17 -6 -215 10 -224 4 -3 8
9 8 25 0 17 4 31 9 31 6 0 10 -8 10 -17 1 -90 7 -193 12 -197 7 -7 19 172 19
270 0 35 4 65 9 68 5 3 7 -55 6 -131 -3 -139 6 -213 18 -143 3 19 6 89 7 155
1 66 3 122 6 124 2 2 4 -57 4 -131 0 -159 9 -265 21 -246 5 7 9 24 10 38 2 45
18 -50 19 -120 2 -46 4 -58 9 -40 7 21 9 17 19 -30 6 -30 13 -68 17 -85 11
-54 24 -138 36 -228 6 -49 17 -103 24 -122 8 -18 16 -63 19 -100 2 -37 9 -71
16 -75 6 -4 13 -48 17 -106 5 -95 11 -123 20 -96 10 28 23 9 23 -35 l0 -48 19
24 18 24 6 -33 c4 -18 7 -43 7 -56 0 -13 4 -24 10 -24 12 0 30 -66 30 -115 0
-22 9 -59 20 -83 14 -30 20 -68 21 -129 2 -112 16 -166 19 -73 2 58 3 61 10
27 18 -93 27 -54 33 137 3 108 10 204 16 213 10 17 10 17 11 1 0 -10 7 -18 15
-18 9 0 21 -12 27 -27 9 -23 12 -25 15 -10 3 12 11 16 23 12 28 -9 31 15 26
187 -4 133 -7 159 -25 189 -46 78 -93 214 -98 284 -3 39 -12 81 -20 94 -22 34
-26 100 -8 127 8 12 17 44 20 70 10 71 11 384 3 384 -5 0 -8 -4 -8 -10 0 -5
-7 -10 -15 -10 -25 0 -17 37 15 67 46 43 34 77 -13 36 -20 -18 -20 -17 -13 27
4 25 9 96 12 159 2 63 8 117 12 120 4 3 15 29 24 56 9 28 21 50 29 50 19 0 13
142 -7 162 -16 16 -19 69 -5 77 14 9 24 85 13 99 -6 7 -13 38 -17 70 -4 32
-13 64 -20 71 -17 17 -26 77 -28 196 -2 94 -22 164 -73 262 -8 14 -14 33 -14
41 0 8 -7 20 -15 27 -8 7 -20 30 -26 51 -7 21 -15 36 -20 34 -8 -6 -32 56 -24
63 2 3 11 -1 19 -7 10 -9 16 -9 21 -1 9 15 -3 62 -14 56 -5 -3 -11 25 -13 63
-4 49 -12 78 -27 99 -11 17 -21 34 -21 40 0 5 -7 15 -15 22 -22 18 -75 127
-75 153 0 12 -9 28 -20 35 -11 7 -20 21 -20 32 0 13 -7 20 -20 20 -12 0 -20 7
-20 16 0 10 -6 14 -15 10 -10 -4 -15 1 -15 15 0 11 -11 41 -25 67 -18 34 -25
64 -27 112 -1 56 -2 59 -5 18 -6 -70 -23 -59 -23 14 0 46 -5 67 -19 82 -10 12
-23 35 -28 51 -6 17 -15 29 -21 28 -6 -1 -16 11 -23 27 -9 18 -16 25 -21 18
-4 -7 -9 -1 -13 15 -4 15 -16 32 -26 38 -11 5 -19 15 -19 22 0 14 -53 57 -70
57 -6 0 -13 7 -17 16 -3 8 -12 13 -19 10 -8 -3 -36 16 -64 43 -27 26 -66 56
-86 67 -21 10 -48 29 -62 42 -14 12 -31 22 -39 22 -7 0 -27 14 -43 30 -17 17
-34 29 -39 26 -12 -8 -61 17 -61 32 0 11 -13 16 -32 13 -5 0 -8 3 -8 9 0 5 -8
10 -18 10 -9 0 -23 10 -31 22 -13 21 -14 21 -27 3 -13 -18 -14 -17 -14 8 0 37
-30 37 -31 0 -2 -22 -3 -20 -8 10 -3 21 -10 38 -16 38 -5 0 -17 6 -25 13 -21
18 -100 47 -110 41 -5 -3 -16 3 -26 12 -10 10 -19 17 -21 16 -3 -3 -20 2 -50
14 -10 3 -24 5 -31 4 -7 -1 -15 4 -17 11 -3 8 -21 12 -46 11 -25 0 -42 4 -45
12 -3 7 -14 11 -24 8 -12 -3 -20 1 -23 14 -4 16 -5 16 -6 1 0 -10 -6 -18 -12
-18 -5 0 -8 4 -5 8 2 4 0 14 -5 22 -8 13 -11 13 -23 -2 -10 -14 -15 -15 -26
-5 -10 9 -13 9 -17 -1 -3 -6 -10 -9 -15 -6 -6 4 -17 -2 -25 -12 -14 -18 -15
-18 -24 -1 -8 14 -14 16 -25 6 -10 -8 -14 -8 -14 0 0 6 -7 11 -15 11 -9 0 -18
12 -22 30 -8 44 -31 50 -24 8 0 -5 -4 -8 -9 -8 -6 0 -11 12 -12 28 0 15 -1 34
-2 42 -1 8 -11 16 -22 18 -12 2 -26 13 -32 25 -9 18 -11 19 -11 5 -1 -10 -6
-18 -12 -18 -8 0 -10 14 -6 40 6 44 -5 58 -43 53 -49 -5 -161 -3 -172 3 -11 7
-47 12 -128 18 -57 4 -120 27 -120 43 0 14 -11 16 -125 13 -138 -3 -359 -1
-381 5 -12 2 -23 3 -26 0z m1060 -222 c-4 -22 -22 -20 -26 1 -2 10 3 16 13 16
10 0 15 -7 13 -17z m-178 -178 c0 -8 -7 -15 -16 -15 -14 0 -14 3 -4 15 7 8 14
15 16 15 2 0 4 -7 4 -15z m-40 -7 c0 -4 -13 -8 -30 -8 -16 0 -30 4 -30 8 0 5
14 9 30 9 17 0 30 -4 30 -9z m85 2 c3 -5 1 -10 -4 -10 -6 0 -11 5 -11 10 0 6
2 10 4 10 3 0 8 -4 11 -10z m845 -90 c0 -5 -4 -10 -10 -10 -5 0 -10 5 -10 10
0 6 5 10 10 10 6 0 10 -4 10 -10z m-1265 -317 c16 -10 17 -12 4 -13 -29 0 -79
12 -79 20 0 11 52 6 75 -7z m330 -73 c-7 -11 -71 -5 -65 6 3 5 11 9 18 11 8 1
16 4 19 7 8 8 34 -14 28 -24z m-88 14 c-3 -3 -12 -4 -19 -1 -8 3 -5 6 6 6 11
1 17 -2 13 -5z m-439 -279 c-3 -3 -9 2 -12 12 -6 14 -5 15 5 6 7 -7 10 -15 7
-18z m382 -67 c0 -16 -3 -19 -11 -11 -6 6 -8 16 -5 22 11 17 16 13 16 -11z
m-93 -50 c-3 -8 -6 -5 -6 6 -1 11 2 17 5 13 3 -3 4 -12 1 -19z m-40 -195 c-11
-10 -27 8 -27 30 l0 21 16 -22 c9 -13 14 -26 11 -29z m160 -220 c-3 -10 -5 -2
-5 17 0 19 2 27 5 18 2 -10 2 -26 0 -35z m40 -5 c-3 -8 -6 -5 -6 6 -1 11 2 17
5 13 3 -3 4 -12 1 -19z m93 -25 c0 -20 -3 -24 -11 -16 -7 7 -9 19 -6 27 10 24
17 19 17 -11z m-217 -18 c4 -8 2 -17 -3 -20 -6 -4 -10 3 -10 14 0 25 6 27 13
6z m84 -67 c-2 -13 -4 -5 -4 17 -1 22 1 32 4 23 2 -10 2 -28 0 -40z m-2167 15
c0 -20 -3 -24 -11 -16 -7 7 -9 19 -6 27 10 24 17 19 17 -11z m2210 -9 c0 -23
2 -25 16 -13 19 16 34 -2 34 -41 0 -19 2 -22 10 -10 11 18 17 13 22 -19 1 -13
-3 -26 -9 -28 -7 -3 -13 3 -13 12 0 12 -4 14 -19 6 -16 -9 -20 -6 -26 22 -5
22 -9 27 -12 14 -3 -9 -9 -15 -14 -12 -12 8 -12 95 1 95 6 0 10 -12 10 -26z
m151 -92 c17 4 24 -36 10 -59 -9 -15 -10 -14 -11 11 l0 28 -19 -23 -18 -23 -8
23 c-4 12 -4 34 0 49 6 25 8 26 20 9 7 -10 19 -16 26 -15z m99 -57 c0 -8 -2
-15 -4 -15 -2 0 -6 7 -10 15 -3 8 -1 15 4 15 6 0 10 -7 10 -15z m-40 -16 c0
-5 -4 -9 -10 -9 -5 0 -10 7 -10 16 0 8 5 12 10 9 6 -3 10 -10 10 -16z m1907
-291 c-3 -8 -6 -5 -6 6 -1 11 2 17 5 13 3 -3 4 -12 1 -19z m47 -54 c9 -25 7
-72 -4 -79 -6 -4 -10 6 -10 22 0 15 -3 38 -6 51 -7 25 11 31 20 6z m36 -60 c0
-34 -4 -53 -10 -49 -5 3 -10 31 -10 61 0 34 4 53 10 49 6 -3 10 -31 10 -61z
m-4703 -156 c-2 -18 -4 -6 -4 27 0 33 2 48 4 33 2 -15 2 -42 0 -60z m-2 -147
c3 -5 1 -12 -5 -16 -5 -3 -10 1 -10 9 0 18 6 21 15 7z m5 -111 c5 -3 2 -16 -5
-30 -13 -23 -14 -21 -13 35 0 33 3 47 5 30 3 -16 9 -32 13 -35z m4867 -77 c-3
-10 -5 -2 -5 17 0 19 2 27 5 18 2 -10 2 -26 0 -35z m-4715 -187 c-3 -51 -7
-64 -14 -52 -5 10 -6 45 -2 83 9 85 23 60 16 -31z m4365 17 c-3 -10 -5 -2 -5
17 0 19 2 27 5 18 2 -10 2 -26 0 -35z m-4323 -20 c-9 -78 -14 -79 -14 -5 0 35
4 62 10 62 6 0 8 -21 4 -57z m-254 -13 c0 -5 -5 -10 -11 -10 -5 0 -7 5 -4 10
3 6 8 10 11 10 2 0 4 -4 4 -10z m27 -62 c-3 -7 -5 -2 -5 12 0 14 2 19 5 13 2
-7 2 -19 0 -25z m4680 -80 c-2 -13 -4 -3 -4 22 0 25 2 35 4 23 2 -13 2 -33 0
-45z m-4672 -15 c-4 -38 -9 -99 -11 -138 -5 -114 -5 -114 -14 -84 -4 15 -6 42
-4 62 2 19 6 72 8 118 5 113 5 109 17 109 8 0 9 -20 4 -67z m212 35 c-3 -8 -6
-5 -6 6 -1 11 2 17 5 13 3 -3 4 -12 1 -19z m-258 -153 c-4 -60 -10 -145 -12
-188 l-4 -78 26 6 c14 4 53 20 86 36 33 16 65 29 72 29 6 0 13 4 15 9 2 5 18
12 36 16 66 14 17 -50 -71 -91 -62 -30 -77 -39 -77 -46 0 -5 -9 -8 -19 -8 -11
0 -23 -4 -26 -10 -3 -5 -15 -10 -26 -10 -11 0 -24 -10 -29 -22 -5 -13 -9 -17
-9 -9 -1 11 -5 11 -19 -2 -10 -10 -22 -14 -26 -10 -10 10 -27 -19 -21 -37 2
-8 -2 -67 -9 -130 l-13 -115 -7 67 c-10 78 -22 82 -24 8 0 -28 -4 -60 -7 -71
-6 -19 -8 -19 -19 -3 -12 16 -14 15 -20 -10 -5 -20 -11 -26 -23 -22 -10 4 -14
2 -10 -6 2 -7 -2 -19 -9 -26 -12 -10 -14 -10 -14 3 0 18 -26 20 -33 3 -16 -45
-23 49 -14 172 4 44 16 68 27 50 6 -9 11 -6 20 10 11 21 11 22 -11 17 -13 -4
-29 -7 -35 -7 -6 0 -16 -10 -22 -22 -6 -13 -11 -17 -11 -10 -1 14 -31 17 -31
2 0 -5 -6 -10 -14 -10 -8 0 -40 -14 -71 -30 -32 -17 -60 -28 -63 -25 -3 2 -17
-1 -31 -9 -14 -7 -41 -20 -59 -29 -19 -9 -40 -17 -48 -17 -8 0 -14 -4 -14 -10
0 -5 -11 -10 -25 -10 -14 0 -25 -4 -25 -10 0 -5 -8 -10 -18 -10 -22 0 -79 -27
-87 -41 -4 -5 -14 -9 -23 -9 -13 0 -12 5 8 20 14 11 31 20 38 20 7 0 15 6 18
14 3 8 13 17 22 20 9 3 31 15 47 26 17 11 38 23 47 26 9 3 19 12 22 20 3 8 12
14 19 14 8 0 20 7 27 15 7 8 16 13 20 10 5 -3 12 0 15 5 7 11 49 32 70 35 34
6 115 45 115 56 0 6 4 8 9 4 6 -3 26 4 46 15 19 11 42 20 50 20 8 0 15 4 15 9
0 5 8 12 18 15 26 9 42 53 42 115 0 34 4 51 9 43 4 -7 7 -40 7 -73 -2 -55 0
-59 21 -59 14 0 23 6 23 15 0 8 -6 14 -12 13 -10 -2 -12 11 -10 48 2 39 -1 56
-15 69 -13 13 -14 20 -5 23 6 2 12 8 12 13 0 6 -4 8 -9 5 -12 -8 -19 13 -13
42 3 16 9 21 21 18 13 -5 13 -4 -1 8 -22 16 -25 61 -4 53 8 -3 17 1 20 9 14
36 26 9 26 -58 0 -39 3 -68 7 -64 4 4 6 36 5 72 -2 40 1 64 7 64 6 0 11 19 11
43 0 28 3 37 9 28 5 -8 7 -60 4 -117 -2 -57 -1 -104 4 -104 5 0 9 30 10 68 3
108 15 206 23 192 4 -7 6 -51 4 -98 -7 -145 19 -76 31 83 5 65 4 62 14 45 5
-8 5 -64 0 -125z m4761 28 c0 -20 -3 -24 -11 -16 -7 7 -9 19 -6 27 10 24 17
19 17 -11z m-3500 -31 c8 -1 56 -4 105 -6 50 -3 117 -8 150 -12 33 -4 81 -7
108 -6 26 0 47 -4 47 -10 0 -6 6 -5 16 3 10 8 18 9 22 3 8 -12 51 -13 68 -1 7
4 14 1 17 -6 3 -7 31 -19 62 -26 54 -12 56 -14 50 -39 -3 -15 -14 -35 -25 -46
-16 -17 -35 -18 -213 -18 -107 1 -199 2 -203 3 -5 1 -13 0 -19 -1 -5 -1 -36
-1 -67 0 -47 1 -58 -2 -58 -14 0 -9 -4 -16 -10 -16 -5 0 -10 7 -10 16 0 9 -6
14 -12 12 -13 -5 -14 -8 -17 -55 -1 -24 -3 -26 -12 -11 -5 10 -9 30 -7 44 2
15 -3 29 -9 31 -9 3 -13 -9 -13 -41 0 -25 -4 -46 -10 -46 -5 0 -10 19 -10 42
0 46 -14 44 -16 -4 -2 -32 -24 -65 -24 -35 0 20 -11 22 -28 5 -13 -13 -17 7
-13 68 2 29 0 31 -28 30 -28 -1 -30 -4 -36 -48 -10 -67 -25 -70 -25 -5 l0 55
-32 -2 c-27 -1 -33 -6 -34 -24 -1 -13 -5 -26 -9 -30 -5 -4 -6 0 -3 8 8 21 -10
63 -23 55 -14 -9 -59 34 -59 56 0 23 41 48 82 51 18 1 37 4 43 7 5 2 23 6 40
8 77 9 106 9 111 1 3 -5 12 -3 21 3 12 10 16 10 24 -2 8 -12 11 -11 20 5 6 10
14 14 18 9 3 -6 13 -11 21 -11z m3497 -49 c-3 -10 -5 -2 -5 17 0 19 2 27 5 18
2 -10 2 -26 0 -35z m-2705 12 c3 -14 1 -28 -3 -31 -5 -3 -9 9 -9 25 0 38 6 40
12 6z m2445 -7 c-3 -8 -6 -5 -6 6 -1 11 2 17 5 13 3 -3 4 -12 1 -19z m-2410
-95 c-3 -10 -5 -4 -5 12 0 17 2 24 5 18 2 -7 2 -21 0 -30z m-986 -26 c-1 -4
-1 -21 -1 -38 0 -17 -4 -28 -10 -24 -14 8 -13 78 1 73 6 -2 10 -7 10 -11z
m-464 -24 l27 -26 -30 -26 c-17 -14 -34 -34 -37 -43 -11 -30 -27 -20 -48 29
l-20 46 22 24 c29 30 54 29 86 -4z m4165 -1 c3 -4 8 -25 10 -46 3 -36 1 -40
-27 -48 -26 -7 -34 -4 -57 23 -29 33 -33 45 -22 74 6 14 15 16 48 11 23 -4 44
-10 48 -14z m-5152 -6 c0 -8 -4 -17 -9 -21 -12 -7 -24 12 -16 25 9 15 25 12
25 -4z m1710 -13 c0 -19 -3 -24 -10 -17 -6 6 -8 18 -4 27 9 24 14 21 14 -10z
m37 -10 c-3 -10 -5 -4 -5 12 0 17 2 24 5 18 2 -7 2 -21 0 -30z m-1072 17 c3
-6 3 -30 -1 -55 -5 -35 -10 -45 -25 -45 -13 0 -19 7 -19 24 0 14 -4 36 -9 49
-6 14 -7 28 -4 31 10 10 51 7 58 -4z m-688 -52 c-3 -8 -6 -5 -6 6 -1 11 2 17
5 13 3 -3 4 -12 1 -19z m5263 -30 c0 -20 -26 -24 -33 -5 -2 6 1 20 7 29 12 19
26 6 26 -24z m-5180 -74 c0 -8 -4 -12 -10 -9 -5 3 -10 10 -10 16 0 5 5 9 10 9
6 0 10 -7 10 -16z m210 -88 c0 -3 -4 -8 -10 -11 -5 -3 -10 -1 -10 4 0 6 5 11
10 11 6 0 10 -2 10 -4z m-263 -133 c-3 -10 -5 -4 -5 12 0 17 2 24 5 18 2 -7 2
-21 0 -30z m1763 1 c0 -24 -3 -25 -27 -19 -35 8 -37 11 -30 30 4 8 18 15 32
15 20 0 25 -5 25 -26z m3375 -16 c-10 -31 -25 -47 -25 -26 0 24 11 48 22 48 5
0 6 -10 3 -22z m-138 -70 c-3 -7 -5 -2 -5 12 0 14 2 19 5 13 2 -7 2 -19 0 -25z
m-4920 -110 c-3 -8 -6 -5 -6 6 -1 11 2 17 5 13 3 -3 4 -12 1 -19z m2577 -64
c2 -32 1 -90 -3 -129 -4 -38 -5 -83 -2 -100 5 -25 -12 -231 -18 -215 -8 23 7
516 15 507 2 -2 6 -30 8 -63z m-902 10 c-3 -19 -7 -22 -13 -12 -13 20 -11 38
5 38 9 0 12 -8 8 -26z m-43 9 c0 -5 -4 -17 -9 -28 -8 -18 -9 -17 -9 8 -1 15 4
27 9 27 6 0 10 -3 9 -7z m332 -235 l-9 -33 -2 45 c-3 71 1 144 8 155 11 16 14
-131 3 -167z m-2024 100 c-3 -7 -5 -2 -5 12 0 14 2 19 5 13 2 -7 2 -19 0 -25z
m2083 18 c0 -7 -7 -27 -15 -42 l-15 -29 0 36 c0 20 3 39 7 42 11 12 23 8 23
-7z m26 -13 c-10 -10 -19 5 -10 18 6 11 8 11 12 0 2 -7 1 -15 -2 -18z m479
-251 c-4 -39 -10 -60 -17 -56 -10 7 -8 60 9 254 l8 85 3 -110 c2 -60 0 -138
-3 -173z m2392 246 c-3 -8 -6 -5 -6 6 -1 11 2 17 5 13 3 -3 4 -12 1 -19z
m-2570 -50 c-3 -8 -6 -5 -6 6 -1 11 2 17 5 13 3 -3 4 -12 1 -19z m-1120 -55
c-3 -10 -5 -4 -5 12 0 17 2 24 5 18 2 -7 2 -21 0 -30z m860 -25 c-2 -13 -4 -5
-4 17 -1 22 1 32 4 23 2 -10 2 -28 0 -40z m309 35 c-3 -10 -1 -34 3 -53 5 -19
9 -27 10 -17 1 10 6 28 12 39 11 21 12 21 24 -8 l12 -29 9 30 8 30 7 -25 c12
-44 10 -146 -5 -181 -13 -30 -14 -31 -18 -11 -4 29 -22 33 -26 7 -8 -44 -22
-37 -23 11 -1 27 -3 40 -5 29 -3 -11 -10 -40 -16 -64 -11 -41 -12 -42 -20 -20
-7 19 -11 21 -18 9 -5 -8 -10 -33 -11 -55 l-1 -40 -11 49 c-7 36 -6 76 4 150
9 67 15 89 17 66 4 -46 22 -64 22 -23 0 53 12 123 22 123 5 0 7 -8 4 -17z
m-216 -75 c0 -36 -3 -49 -10 -42 -10 10 -4 94 6 94 2 0 4 -23 4 -52z m37 30
c-3 -8 -6 -5 -6 6 -1 11 2 17 5 13 3 -3 4 -12 1 -19z m-172 -116 c-12 -13 -23
22 -14 45 5 13 8 27 8 31 -1 4 0 16 2 27 1 11 4 -6 6 -39 2 -32 1 -61 -2 -64z
m82 96 c-3 -8 -6 -5 -6 6 -1 11 2 17 5 13 3 -3 4 -12 1 -19z m-2367 -33 c0 -8
-4 -15 -10 -15 -5 0 -10 7 -10 15 0 8 5 15 10 15 6 0 10 -7 10 -15z m2460 -17
c0 -25 -3 -29 -10 -18 -13 20 -13 50 0 50 6 0 10 -15 10 -32z m-993 0 c-3 -8
-6 -5 -6 6 -1 11 2 17 5 13 3 -3 4 -12 1 -19z m894 -41 c-13 -13 -15 11 -4 40
7 16 8 15 11 -6 2 -13 -1 -28 -7 -34z m-2284 -9 c-2 -13 -4 -5 -4 17 -1 22 1
32 4 23 2 -10 2 -28 0 -40z m600 -10 c-3 -8 -6 -5 -6 6 -1 11 2 17 5 13 3 -3
4 -12 1 -19z m-130 -50 c-3 -8 -6 -5 -6 6 -1 11 2 17 5 13 3 -3 4 -12 1 -19z
m-172 -191 c-1 -101 -4 -188 -8 -194 -3 -5 -7 -49 -8 -96 -1 -65 -5 -90 -17
-99 -13 -11 -14 -11 -8 1 12 18 15 361 5 361 -5 0 -10 -12 -11 -27 -3 -69 -5
-84 -11 -89 -9 -9 -6 139 3 178 l8 33 1 -32 c1 -17 6 -35 12 -39 8 -4 9 0 4
15 -4 12 -2 21 4 21 7 0 11 29 11 75 0 41 4 75 8 75 4 0 8 -82 7 -183z m-425
116 c0 -5 -5 -15 -10 -23 -8 -12 -10 -11 -10 8 0 12 5 22 10 22 6 0 10 -3 10
-7z m40 -33 c0 -5 -4 -10 -10 -10 -5 0 -10 5 -10 10 0 6 5 10 10 10 6 0 10 -4
10 -10z m117 -42 c-3 -7 -5 -2 -5 12 0 14 2 19 5 13 2 -7 2 -19 0 -25z m2703
-28 c4 0 11 12 15 28 5 17 9 22 12 12 13 -44 13 -43 29 -29 13 10 16 9 21 -10
4 -17 8 -19 19 -10 11 9 15 8 20 -5 9 -24 21 -20 32 12 12 32 13 29 16 -100 3
-111 16 -128 16 -20 0 44 5 84 10 87 12 7 14 -200 4 -343 -7 -93 -24 -128 -24
-49 0 23 -5 49 -10 57 -7 11 -10 0 -10 -37 0 -29 -4 -53 -9 -53 -10 0 -23 31
-20 46 1 5 0 23 -1 39 -2 18 -6 6 -9 -29 -4 -34 -11 -61 -18 -64 -8 -2 -13 6
-13 20 -1 22 -2 21 -17 -7 -15 -26 -18 -28 -21 -10 -5 24 -22 45 -22 27 0 -30
-20 -8 -26 28 -8 49 -16 45 -24 -13 l-6 -42 -8 63 c-9 68 -26 84 -27 25 -1
-45 -5 -36 -14 30 -7 54 -25 64 -25 13 0 -19 -4 -38 -10 -41 -6 -4 -10 28 -10
89 0 57 -4 96 -10 96 -5 0 -10 -21 -10 -47 0 -27 -5 -55 -10 -63 -7 -10 -10
23 -10 103 0 108 7 136 26 105 4 -7 14 7 25 33 10 24 18 38 18 32 1 -23 20
-14 27 12 9 35 24 21 25 -23 2 -33 2 -34 6 -7 2 17 9 48 16 70 l12 40 3 -32
c2 -18 7 -33 12 -33z m-2865 40 c3 -5 1 -10 -4 -10 -6 0 -11 5 -11 10 0 6 2
10 4 10 3 0 8 -4 11 -10z m292 -52 c-3 -8 -6 -5 -6 6 -1 11 2 17 5 13 3 -3 4
-12 1 -19z m40 -15 c-3 -10 -5 -4 -5 12 0 17 2 24 5 18 2 -7 2 -21 0 -30z
m-40 -45 c-3 -7 -5 -2 -5 12 0 14 2 19 5 13 2 -7 2 -19 0 -25z m45 -24 c-2
-55 -12 -54 -12 1 0 27 3 45 7 42 3 -4 6 -23 5 -43z m-130 -4 c-2 -16 -6 -30
-8 -30 -2 0 -4 14 -4 30 0 17 4 30 8 30 5 0 7 -13 4 -30z m-221 -27 c-9 -16
-10 -14 -11 12 0 21 3 26 11 18 8 -8 8 -16 0 -30z m3118 0 c-1 -37 -1 -37 -8
-8 -7 28 -5 45 5 45 2 0 3 -17 3 -37z m-439 -83 c-7 -71 -7 -72 -8 -20 -2 48
6 106 13 98 1 -2 -1 -37 -5 -78z m-2460 25 c0 -19 -5 -35 -11 -35 -6 0 -8 13
-5 33 5 38 5 37 11 37 3 0 5 -16 5 -35z m2937 -97 c-2 -24 -4 -5 -4 42 0 47 2
66 4 43 2 -24 2 -62 0 -85z m-2767 96 c0 -8 -5 -12 -10 -9 -6 4 -8 11 -5 16 9
14 15 11 15 -7z m2728 -154 c-2 -96 -6 -122 -19 -114 -7 4 -7 77 2 248 3 61
19 -62 17 -134z m-2818 83 c0 -19 -3 -24 -10 -17 -6 6 -8 18 -4 27 9 24 14 21
14 -10z m37 -55 c-2 -18 -4 -6 -4 27 0 33 2 48 4 33 2 -15 2 -42 0 -60z m52
60 c-1 -13 -5 -34 -9 -48 -7 -20 -8 -16 -9 23 -1 26 4 47 9 47 6 0 10 -10 9
-22z m5088 -40 c-3 -8 -6 -5 -6 6 -1 11 2 17 5 13 3 -3 4 -12 1 -19z m5 -53
c-6 -34 -12 -32 -12 6 0 16 4 28 9 25 4 -3 6 -17 3 -31z m-2322 -69 c0 -3 -4
-8 -10 -11 -5 -3 -10 -1 -10 4 0 6 5 11 10 11 6 0 10 -2 10 -4z m-353 -28 c-3
-8 -6 -5 -6 6 -1 11 2 17 5 13 3 -3 4 -12 1 -19z m-3087 -82 c0 -3 -7 -12 -16
-20 -23 -23 -40 -19 -19 4 16 18 35 26 35 16z m777 -53 c-3 -10 -5 -2 -5 17 0
19 2 27 5 18 2 -10 2 -26 0 -35z m2340 -290 c-3 -10 -5 -2 -5 17 0 19 2 27 5
18 2 -10 2 -26 0 -35z m40 10 c-3 -10 -5 -4 -5 12 0 17 2 24 5 18 2 -7 2 -21
0 -30z m570 -90 c-3 -10 -5 -4 -5 12 0 17 2 24 5 18 2 -7 2 -21 0 -30z m223
-54 c0 -6 -4 -7 -10 -4 -5 3 -10 11 -10 16 0 6 5 7 10 4 6 -3 10 -11 10 -16z
m-3903 -91 c-3 -8 -6 -5 -6 6 -1 11 2 17 5 13 3 -3 4 -12 1 -19z m6 -38 c3
-11 1 -23 -4 -26 -5 -3 -9 6 -9 20 0 31 6 34 13 6z m877 -30 c0 -10 -4 -21 -9
-24 -10 -7 -23 33 -15 46 8 13 24 -1 24 -22z m-1426 -55 c-4 -22 -8 -60 -10
-84 -6 -68 -24 -76 -25 -10 -1 29 -5 68 -9 84 -7 26 -8 22 -9 -22 -1 -32 -6
-53 -12 -53 -6 0 -8 7 -5 16 3 9 6 40 6 70 0 47 2 54 20 54 11 0 20 6 20 13 0
6 7 3 16 -8 11 -15 13 -31 8 -60z m1455 -52 c-1 -21 -5 -49 -9 -63 -6 -18 -8
-7 -7 38 1 34 5 62 9 62 4 0 8 -17 7 -37z m-40 15 c0 -7 -4 -22 -9 -33 -7 -17
-9 -15 -9 13 -1 17 4 32 9 32 6 0 10 -6 9 -12z m-1389 -84 c0 -8 -4 -14 -10
-14 -5 0 -10 9 -10 21 0 11 5 17 10 14 6 -3 10 -13 10 -21z m365 -25 c9 16 25
13 25 -4 0 -8 9 -15 19 -15 11 0 23 -9 26 -20 4 -11 11 -18 16 -14 5 3 15 -9
21 -27 10 -29 12 -31 19 -13 7 18 8 18 15 -3 3 -13 14 -23 24 -23 10 0 26 -7
34 -16 9 -8 16 -12 16 -8 0 4 11 -5 25 -20 25 -27 33 -56 16 -56 -5 0 -11 6
-14 13 -2 6 -8 -5 -12 -26 -5 -27 -12 -37 -22 -33 -7 3 -16 -1 -19 -9 -9 -23
-21 -18 -29 12 -6 26 -7 27 -20 10 -10 -13 -13 -51 -12 -130 1 -136 -11 -244
-24 -209 -11 28 -9 93 3 108 4 6 5 19 2 29 -12 30 -24 -5 -24 -72 0 -59 -13
-83 -26 -48 -4 8 -10 15 -16 15 -5 0 -7 -4 -3 -9 3 -5 1 -12 -4 -15 -10 -7
-20 60 -17 122 2 43 -7 55 -18 26 -3 -9 -6 -39 -6 -67 0 -32 -4 -47 -9 -41 -6
5 -7 51 -4 108 5 84 9 99 24 103 14 4 17 11 12 36 -4 17 -11 37 -17 45 -26 31
-62 62 -72 62 -15 0 -27 76 -19 121 10 57 15 68 30 62 9 -3 18 2 22 12 6 17 7
17 19 1 8 -11 14 -13 19 -7z m2887 -99 c-6 -41 -12 -38 -12 6 0 19 4 33 8 30
5 -3 7 -19 4 -36z m-172 -27 c0 -38 -3 -54 -10 -47 -9 9 -3 104 6 104 2 0 4
-26 4 -57z m-2960 10 c0 -19 -3 -24 -10 -17 -6 6 -8 18 -4 27 9 24 14 21 14
-10z m50 -9 c0 -14 -4 -23 -10 -19 -5 3 -10 15 -10 26 0 10 5 19 10 19 6 0 10
-12 10 -26z m3843 4 c4 -10 8 -10 15 1 8 12 13 12 25 2 10 -8 17 -9 22 -2 6
10 93 7 103 -4 3 -3 6 -24 6 -47 1 -32 -3 -43 -14 -43 -8 0 -21 -5 -29 -9 -17
-11 -144 -12 -161 -1 -6 4 -14 4 -17 1 -3 -3 -12 -1 -20 5 -9 9 -17 8 -27 0
-20 -17 -29 2 -22 45 7 34 19 43 31 23 5 -6 11 -4 19 7 7 9 18 14 25 10 6 -4
14 0 17 8 7 19 20 21 27 4z m317 -18 c5 0 10 5 12 12 3 7 9 8 19 3 8 -5 22 -8
32 -7 12 2 17 -3 17 -19 0 -21 1 -21 19 -5 17 16 19 16 26 -6 l7 -23 7 25 c7
24 8 24 20 -12 13 -40 7 -63 -15 -54 -7 3 -16 1 -20 -5 -3 -5 -14 -7 -23 -4
-10 3 -24 -1 -31 -10 -7 -8 -16 -12 -22 -9 -5 3 -15 1 -22 -5 -10 -9 -15 -7
-20 5 -5 13 -9 15 -18 6 -17 -17 -28 -15 -28 4 0 13 -2 13 -17 -2 -17 -17 -18
-17 -21 0 -2 10 -10 15 -17 12 -15 -5 -25 14 -25 50 0 13 5 23 12 22 7 -2 17
7 23 20 5 12 13 22 18 22 4 0 12 -10 17 -22 5 -14 9 -17 9 -7 1 8 7 21 14 28
10 10 13 9 15 -3 2 -9 7 -16 12 -16z m-550 -51 c0 -11 -4 -18 -10 -14 -5 3 -7
12 -3 20 7 21 13 19 13 -6z m-3197 -151 c-1 -18 -2 -48 -2 -66 -1 -21 -5 -31
-12 -27 -6 5 -9 29 -6 64 6 65 5 61 15 61 4 0 6 -15 5 -32z m42 -46 c-9 -49
-24 -21 -17 32 4 32 6 36 14 22 6 -10 7 -34 3 -54z m32 1 c-3 -10 -5 -4 -5 12
0 17 2 24 5 18 2 -7 2 -21 0 -30z m-116 -14 c-4 -12 -8 -45 -10 -87 -2 -29
-16 -1 -15 30 2 70 4 80 17 75 6 -2 10 -11 8 -18z m-314 -36 c-4 -17 -4 -17
-12 0 -4 9 -4 25 0 35 8 16 8 16 12 0 3 -10 3 -26 0 -35z m1254 -36 c-8 -8
-11 -7 -11 4 0 20 13 34 18 19 3 -7 -1 -17 -7 -23z m-44 -109 c-2 -24 -4 -7
-4 37 0 44 2 63 4 43 2 -21 2 -57 0 -80z m-1117 65 c0 -7 -4 -13 -10 -13 -5 0
-10 12 -10 28 0 21 2 24 10 12 5 -8 10 -21 10 -27z m120 -93 c0 -5 -4 -10 -10
-10 -5 0 -10 5 -10 10 0 6 5 10 10 10 6 0 10 -4 10 -10z m1040 -56 c0 -8 -5
-12 -10 -9 -6 4 -8 11 -5 16 9 14 15 11 15 -7z m37 -61 c-3 -10 -5 -2 -5 17 0
19 2 27 5 18 2 -10 2 -26 0 -35z m-397 -205 c0 -121 -1 -131 -16 -116 -14 14
-15 28 -5 117 6 56 11 108 11 116 0 8 2 15 5 15 3 0 5 -59 5 -132z m34 -168
l-7 -55 -10 35 c-6 24 -5 71 4 150 l14 115 3 -95 c2 -52 0 -120 -4 -150z m-64
210 c0 -5 -4 -10 -10 -10 -5 0 -10 5 -10 10 0 6 5 10 10 10 6 0 10 -4 10 -10z
m107 -186 c-3 -86 -8 -159 -11 -162 -11 -10 -11 178 0 271 11 94 16 44 11
-109z m310 134 c-3 -8 -6 -5 -6 6 -1 11 2 17 5 13 3 -3 4 -12 1 -19z m48 -7
c3 -5 1 -12 -5 -16 -5 -3 -10 1 -10 9 0 18 6 21 15 7z m-5 -61 c0 -5 -4 -10
-10 -10 -5 0 -10 5 -10 10 0 6 5 10 10 10 6 0 10 -4 10 -10z m37 -62 c-2 -13
-4 -5 -4 17 -1 22 1 32 4 23 2 -10 2 -28 0 -40z m-310 -30 c-2 -13 -4 -3 -4
22 0 25 2 35 4 23 2 -13 2 -33 0 -45z m-38 -63 c-2 -98 -4 -113 -17 -103 -13
11 -12 75 4 193 3 25 3 25 10 25 3 0 4 -52 3 -115z m41 -61 c0 -72 -3 -95 -12
-91 -20 6 -13 187 7 187 3 0 5 -43 5 -96z m35 -112 c-12 -96 -17 -46 -9 75 8
109 9 113 12 48 2 -38 0 -94 -3 -123z m1232 126 c-3 -8 -6 -5 -6 6 -1 11 2 17
5 13 3 -3 4 -12 1 -19z m-1184 -38 c-7 -28 -13 -25 -13 6 0 14 4 23 9 20 5 -3
7 -15 4 -26z m1012 -17 c-11 -68 -13 -93 -14 -137 -1 -22 -4 -37 -7 -33 -11
10 7 217 18 217 7 0 8 -16 3 -47z m-1020 -121 l-10 -33 -3 47 c-2 26 0 59 4
73 7 24 8 23 13 -14 3 -22 2 -55 -4 -73z m45 -23 c0 -57 -4 -88 -10 -84 -16
10 -10 175 6 175 2 0 4 -41 4 -91z m29 -133 c-8 -8 -9 14 -5 84 8 148 10 153
13 36 3 -72 0 -113 -8 -120z m448 132 c-2 -13 -4 -5 -4 17 -1 22 1 32 4 23 2
-10 2 -28 0 -40z m40 -20 c-2 -13 -4 -5 -4 17 -1 22 1 32 4 23 2 -10 2 -28 0
-40z m530 5 c-3 -10 -5 -2 -5 17 0 19 2 27 5 18 2 -10 2 -26 0 -35z m-972
-131 c-11 -11 -13 6 -6 78 l6 75 3 -74 c2 -40 0 -76 -3 -79z m92 101 c-3 -10
-5 -2 -5 17 0 19 2 27 5 18 2 -10 2 -26 0 -35z m880 -15 c-3 -8 -6 -5 -6 6 -1
11 2 17 5 13 3 -3 4 -12 1 -19z m-620 -35 c-3 -10 -5 -2 -5 17 0 19 2 27 5 18
2 -10 2 -26 0 -35z m579 -28 c-5 -103 -16 -108 -16 -7 0 45 4 82 9 82 6 0 9
-32 7 -75z m-47 3 c0 -45 -3 -56 -8 -38 -7 24 -3 100 5 100 2 0 4 -28 3 -62z
m-97 -114 c-5 -10 -8 12 -6 58 5 111 8 121 11 35 2 -42 0 -84 -5 -93z m498
151 c0 -8 -4 -15 -10 -15 -5 0 -10 7 -10 15 0 8 5 15 10 15 6 0 10 -7 10 -15z
m-891 -49 c-9 -8 -10 -7 -5 7 3 10 7 26 7 35 1 9 4 6 6 -7 3 -13 -1 -28 -8
-35z m92 27 c-8 -15 -10 -15 -11 -2 0 17 10 32 18 25 2 -3 -1 -13 -7 -23z
m488 -50 c0 -43 -3 -70 -7 -61 -7 17 -4 138 4 138 2 0 4 -35 3 -77z m91 57 c0
-5 -5 -10 -11 -10 -5 0 -7 5 -4 10 3 6 8 10 11 10 2 0 4 -4 4 -10z m-53 -122
c-2 -24 -4 -5 -4 42 0 47 2 66 4 43 2 -24 2 -62 0 -85z m-570 80 c-3 -8 -6 -5
-6 6 -1 11 2 17 5 13 3 -3 4 -12 1 -19z m983 -20 c0 -5 -4 -8 -10 -8 -5 0 -10
10 -10 23 0 18 2 19 10 7 5 -8 10 -18 10 -22z m-50 2 c0 -5 -2 -10 -4 -10 -3
0 -8 5 -11 10 -3 6 -1 10 4 10 6 0 11 -4 11 -10z m-1153 -22 c-3 -8 -6 -5 -6
6 -1 11 2 17 5 13 3 -3 4 -12 1 -19z m-137 -75 c-8 -48 -8 -48 -8 22 -1 49 2
64 8 48 5 -11 5 -43 0 -70z m617 55 c-3 -7 -5 -2 -5 12 0 14 2 19 5 13 2 -7 2
-19 0 -25z m142 10 c-1 -26 -16 -52 -22 -41 -4 7 -3 14 2 18 6 3 8 12 4 20 -3
8 0 15 6 15 6 0 11 -6 10 -12z m-412 -40 c-3 -7 -5 -2 -5 12 0 14 2 19 5 13 2
-7 2 -19 0 -25z m444 -39 l-10 -34 1 35 c0 19 3 44 6 55 6 19 6 19 10 -1 2
-12 -1 -37 -7 -55z m-574 24 c-3 -10 -5 -4 -5 12 0 17 2 24 5 18 2 -7 2 -21 0
-30z m40 15 c-3 -8 -6 -5 -6 6 -1 11 2 17 5 13 3 -3 4 -12 1 -19z m-220 -60
c-2 -13 -4 -3 -4 22 0 25 2 35 4 23 2 -13 2 -33 0 -45z m90 10 c-2 -13 -4 -5
-4 17 -1 22 1 32 4 23 2 -10 2 -28 0 -40z m843 27 c0 -14 -4 -25 -9 -25 -4 0
-6 11 -3 25 2 14 6 25 8 25 2 0 4 -11 4 -25z m-138 -12 c-3 -16 -7 -22 -10
-15 -4 13 4 42 11 42 2 0 2 -12 -1 -27z m943 -80 c-3 -59 -9 -111 -13 -115
-13 -13 -13 153 0 188 7 19 14 34 15 34 2 0 1 -48 -2 -107z m86 -31 c-2 -135
-10 -204 -22 -197 -4 3 -6 34 -4 68 8 103 14 211 15 236 0 13 3 21 7 18 3 -4
6 -60 4 -125z m-1198 103 c-3 -9 -8 -14 -10 -11 -3 3 -2 9 2 15 9 16 15 13 8
-4z m-573 -16 c0 -11 -4 -17 -10 -14 -5 3 -10 13 -10 21 0 8 5 14 10 14 6 0
10 -9 10 -21z m127 -46 c-2 -16 -4 -5 -4 22 0 28 2 40 4 28 2 -13 2 -35 0 -50z
m36 -184 c-4 -5 -7 11 -6 34 1 23 3 83 4 132 3 82 4 79 6 -34 2 -68 0 -128 -4
-132z m490 184 c-7 -91 -13 -93 -13 -5 0 40 4 72 9 72 5 0 7 -30 4 -67z m-576
5 c-3 -7 -5 -2 -5 12 0 14 2 19 5 13 2 -7 2 -19 0 -25z m530 -75 c-2 -21 -4
-4 -4 37 0 41 2 58 4 38 2 -21 2 -55 0 -75z m-350 65 c-3 -7 -5 -2 -5 12 0 14
2 19 5 13 2 -7 2 -19 0 -25z m-220 -40 c-2 -13 -4 -3 -4 22 0 25 2 35 4 23 2
-13 2 -33 0 -45z m170 25 c-3 -10 -5 -4 -5 12 0 17 2 24 5 18 2 -7 2 -21 0
-30z m180 -5 c-3 -8 -6 -5 -6 6 -1 11 2 17 5 13 3 -3 4 -12 1 -19z m-310 -35
c-3 -10 -5 -2 -5 17 0 19 2 27 5 18 2 -10 2 -26 0 -35z m440 -10 c-3 -10 -5
-4 -5 12 0 17 2 24 5 18 2 -7 2 -21 0 -30z m1123 33 c0 -3 -4 -8 -10 -11 -5
-3 -10 -1 -10 4 0 6 5 11 10 11 6 0 10 -2 10 -4z m-1343 -38 c-3 -8 -6 -5 -6
6 -1 11 2 17 5 13 3 -3 4 -12 1 -19z m1607 -13 c3 -8 1 -15 -4 -15 -6 0 -10 7
-10 15 0 8 2 15 4 15 2 0 6 -7 10 -15z m95 -2 c0 -10 -6 -36 -14 -58 l-13 -40
-1 42 c-1 46 6 73 20 73 5 0 9 -8 8 -17z m-1792 -30 c-3 -10 -5 -4 -5 12 0 17
2 24 5 18 2 -7 2 -21 0 -30z m180 -35 c-2 -13 -4 -5 -4 17 -1 22 1 32 4 23 2
-10 2 -28 0 -40z m130 10 c-3 -8 -6 -5 -6 6 -1 11 2 17 5 13 3 -3 4 -12 1 -19z
m1333 -44 c0 -25 -4 -43 -9 -40 -5 3 -7 20 -6 38 4 46 4 48 10 48 3 0 5 -21 5
-46z m1521 -21 c-8 -15 -10 -15 -11 -2 0 17 10 32 18 25 2 -3 -1 -13 -7 -23z
m-1024 -15 c-3 -8 -6 -5 -6 6 -1 11 2 17 5 13 3 -3 4 -12 1 -19z m-47 8 c0 -3
-4 -8 -10 -11 -5 -3 -10 -1 -10 4 0 6 5 11 10 11 6 0 10 -2 10 -4z m-1883 -63
c-3 -10 -5 -4 -5 12 0 17 2 24 5 18 2 -7 2 -21 0 -30z m0 -95 c-3 -7 -5 -2 -5
12 0 14 2 19 5 13 2 -7 2 -19 0 -25z m1110 -95 c-3 -10 -5 -2 -5 17 0 19 2 27
5 18 2 -10 2 -26 0 -35z m1035 -65 c-2 -10 -8 -18 -13 -18 -11 0 -12 54 -2 64
10 10 21 -24 15 -46z m-767 33 c3 -5 1 -12 -5 -16 -5 -3 -10 1 -10 9 0 18 6
21 15 7z m-138 -33 c-3 -7 -5 -2 -5 12 0 14 2 19 5 13 2 -7 2 -19 0 -25z
m1043 -7 c0 -42 -14 -46 -17 -5 -2 19 2 34 7 34 6 0 10 -13 10 -29z m-1173 -3
c-3 -8 -6 -5 -6 6 -1 11 2 17 5 13 3 -3 4 -12 1 -19z m1213 0 c0 -16 -3 -19
-11 -11 -6 6 -8 16 -5 22 11 17 16 13 16 -11z m50 -20 c0 -36 -4 -35 -14 5 -4
16 -2 27 4 27 5 0 10 -14 10 -32z m-1044 -235 c-7 -254 -13 -353 -23 -363 -3
-3 -2 112 1 255 5 247 13 365 23 365 3 0 2 -116 -1 -257z m-36 190 c0 -18 -4
-33 -10 -33 -5 0 -10 21 -10 48 0 34 3 43 10 32 5 -8 10 -30 10 -47z m-53 10
c-3 -10 -5 -4 -5 12 0 17 2 24 5 18 2 -7 2 -21 0 -30z m131 -248 c-4 -38 -7
-122 -8 -185 0 -63 -4 -121 -9 -129 -11 -17 -6 401 6 504 l8 70 5 -95 c3 -52
2 -126 -2 -165z m-310 220 c-3 -3 -9 2 -12 12 -6 14 -5 15 5 6 7 -7 10 -15 7
-18z m-46 -37 c-3 -61 -12 -60 -12 2 0 29 3 50 7 47 3 -4 6 -26 5 -49z m131
-135 c-3 -93 -9 -172 -15 -178 -6 -7 -8 44 -4 152 6 143 11 193 21 193 1 0 0
-75 -2 -167z m-226 135 c-3 -8 -6 -5 -6 6 -1 11 2 17 5 13 3 -3 4 -12 1 -19z
m139 -85 c-2 -60 -5 -139 -6 -178 -1 -50 -4 -64 -10 -49 -4 12 -7 41 -5 65 2
24 4 95 4 157 1 66 5 112 11 112 6 0 8 -41 6 -107z m48 -5 c-2 -62 -7 -147
-11 -188 l-6 -75 -9 45 c-4 25 -6 56 -3 70 3 14 6 70 6 125 1 106 5 135 19
135 5 0 7 -49 4 -112z m-277 65 c-3 -10 -5 -4 -5 12 0 17 2 24 5 18 2 -7 2
-21 0 -30z m50 15 c-3 -8 -6 -5 -6 6 -1 11 2 17 5 13 3 -3 4 -12 1 -19z m358
-170 c-4 -106 -7 -203 -6 -215 0 -13 -4 -23 -9 -23 -11 0 -5 404 6 421 15 25
16 -7 9 -183z m51 138 c-7 -41 -10 -113 -14 -330 -1 -66 -5 -116 -9 -112 -8 8
-5 452 3 479 11 34 26 5 20 -37z m-95 32 c4 -54 -10 -410 -16 -417 -5 -4 -10
104 -9 179 2 127 10 250 17 250 4 0 7 -6 8 -12z m-494 -35 c-3 -10 -5 -4 -5
12 0 17 2 24 5 18 2 -7 2 -21 0 -30z m130 -125 c-2 -24 -4 -5 -4 42 0 47 2 66
4 43 2 -24 2 -62 0 -85z m183 -3 c0 -74 -4 -115 -11 -115 -6 0 -8 33 -5 98 2
53 5 105 5 115 1 9 3 17 6 17 3 0 5 -52 5 -115z m-92 -10 c-6 -118 -18 -154
-18 -53 0 70 10 158 18 158 2 0 2 -47 0 -105z m-131 63 c-3 -7 -5 -2 -5 12 0
14 2 19 5 13 2 -7 2 -19 0 -25z m89 -39 c-2 -19 -8 -44 -15 -55 -11 -17 -12
-17 -7 -1 3 10 6 42 6 70 1 36 3 47 10 37 5 -9 7 -32 6 -51z m74 -107 c-9 -13
-10 -5 -6 38 3 30 7 69 8 85 1 17 3 0 5 -38 2 -38 -1 -75 -7 -85z m-162 103
c-3 -3 -9 2 -12 12 -6 14 -5 15 5 6 7 -7 10 -15 7 -18z m-54 -37 c-9 -59 -14
-60 -14 -5 0 26 5 47 10 47 6 0 8 -16 4 -42z m-1207 -90 c-2 -13 -4 -3 -4 22
0 25 2 35 4 23 2 -13 2 -33 0 -45z m1200 -10 c-3 -8 -6 -5 -6 6 -1 11 2 17 5
13 3 -3 4 -12 1 -19z m-1017 -33 c0 -14 -4 -25 -9 -25 -4 0 -6 11 -3 25 2 14
6 25 8 25 2 0 4 -11 4 -25z m1237 -12 c-3 -10 -5 -4 -5 12 0 17 2 24 5 18 2
-7 2 -21 0 -30z m-1417 -73 c0 -38 -4 -70 -8 -70 -4 0 -7 28 -6 63 1 70 2 77
9 77 3 0 5 -31 5 -70z m41 -12 c-1 -40 -3 -122 -6 -183 -16 -378 -26 -716 -20
-725 3 -5 1 -10 -4 -10 -7 0 -11 -47 -11 -135 0 -83 -4 -135 -10 -135 -12 0
-12 -28 0 340 18 570 37 937 47 926 4 -3 5 -38 4 -78z m-134 5 c-2 -16 -4 -5
-4 22 0 28 2 40 4 28 2 -13 2 -35 0 -50z m53 58 c0 -6 -4 -13 -10 -16 -5 -3
-10 1 -10 9 0 9 5 16 10 16 6 0 10 -4 10 -9z m477 -63 c-3 -8 -6 -5 -6 6 -1
11 2 17 5 13 3 -3 4 -12 1 -19z m-485 -49 l-10 -34 -1 45 c-1 31 2 41 10 33 7
-7 7 -21 1 -44z m1735 19 c-3 -8 -6 -5 -6 6 -1 11 2 17 5 13 3 -3 4 -12 1 -19z
m-1691 -100 c-6 -75 -19 -375 -32 -781 -4 -114 -11 -210 -15 -213 -5 -2 -6 46
-4 108 2 62 6 205 10 318 13 447 23 630 37 630 5 0 6 -28 4 -62z m-52 -101
c-2 -62 -6 -157 -9 -212 -2 -55 -4 -139 -5 -187 0 -49 -3 -88 -8 -88 -8 0 -8
42 3 378 4 134 11 239 15 232 4 -6 6 -62 4 -123z m536 118 c0 -8 -4 -15 -10
-15 -5 0 -10 7 -10 15 0 8 5 15 10 15 6 0 10 -7 10 -15z m79 -89 c-9 -8 -10
-7 -5 7 3 10 7 33 8 50 1 28 2 28 5 -7 3 -22 -1 -43 -8 -50z m-752 52 c-3 -8
-6 -5 -6 6 -1 11 2 17 5 13 3 -3 4 -12 1 -19z m90 -10 c-3 -7 -5 -2 -5 12 0
14 2 19 5 13 2 -7 2 -19 0 -25z m710 -30 c-3 -8 -6 -5 -6 6 -1 11 2 17 5 13 3
-3 4 -12 1 -19z m-710 -30 c-3 -8 -6 -5 -6 6 -1 11 2 17 5 13 3 -3 4 -12 1
-19z m-90 -30 c-3 -7 -5 -2 -5 12 0 14 2 19 5 13 2 -7 2 -19 0 -25z m763 17
c0 -8 -4 -15 -10 -15 -5 0 -10 7 -10 15 0 8 5 15 10 15 6 0 10 -7 10 -15z m76
-93 c-11 -10 -13 3 -7 43 l6 40 3 -39 c2 -21 1 -41 -2 -44z m-749 46 c-3 -8
-6 -5 -6 6 -1 11 2 17 5 13 3 -3 4 -12 1 -19z m790 -55 c-3 -10 -5 -4 -5 12 0
17 2 24 5 18 2 -7 2 -21 0 -30z m320 15 c-3 -8 -6 -5 -6 6 -1 11 2 17 5 13 3
-3 4 -12 1 -19z m-1110 -30 c-3 -8 -6 -5 -6 6 -1 11 2 17 5 13 3 -3 4 -12 1
-19z m1063 -48 c0 -22 -4 -40 -9 -40 -6 0 -9 66 -2 78 6 11 11 -5 11 -38z
m-1123 -82 c-3 -7 -5 -2 -5 12 0 14 2 19 5 13 2 -7 2 -19 0 -25z m0 -105 c-3
-10 -5 -4 -5 12 0 17 2 24 5 18 2 -7 2 -21 0 -30z m40 -50 c-3 -10 -5 -4 -5
12 0 17 2 24 5 18 2 -7 2 -21 0 -30z m0 -105 c-3 -8 -6 -5 -6 6 -1 11 2 17 5
13 3 -3 4 -12 1 -19z m-4 -80 l-11 -33 -1 45 c-1 33 2 41 11 32 8 -8 8 -20 1
-44z m52 7 c-2 -32 -13 -43 -21 -21 -3 9 -1 23 6 31 16 19 16 19 15 -10z m-58
-92 c-3 -10 -5 -4 -5 12 0 17 2 24 5 18 2 -7 2 -21 0 -30z m40 -90 c-3 -10 -5
-4 -5 12 0 17 2 24 5 18 2 -7 2 -21 0 -30z m3 -45 c0 -16 -3 -19 -11 -11 -6 6
-8 16 -5 22 11 17 16 13 16 -11z m77 -180 c-3 -8 -6 -5 -6 6 -1 11 2 17 5 13
3 -3 4 -12 1 -19z m0 -40 c-3 -8 -6 -5 -6 6 -1 11 2 17 5 13 3 -3 4 -12 1 -19z
m-10 -165 c-3 -10 -5 -4 -5 12 0 17 2 24 5 18 2 -7 2 -21 0 -30z m-5 -85 c-7
-7 -12 -8 -12 -2 0 14 12 26 19 19 2 -3 -1 -11 -7 -17z m-45 -120 c-3 -8 -6
-5 -6 6 -1 11 2 17 5 13 3 -3 4 -12 1 -19z m45 -120 c-1 -56 -5 -104 -7 -107
-3 -2 -5 44 -5 102 0 59 3 107 8 107 4 0 6 -46 4 -102z"/>
<path d="M3303 7458 c-13 -39 -11 -117 2 -121 6 -1 11 32 12 76 2 42 1 77 0
77 -2 0 -8 -15 -14 -32z"/>
<path d="M3254 7373 c-10 -42 -4 -116 9 -96 4 7 7 29 5 50 -1 21 1 48 6 61 4
12 3 22 -1 22 -5 0 -13 -17 -19 -37z"/>
<path d="M3188 7167 c-21 -8 -28 -18 -28 -36 l1 -26 12 23 c14 24 27 20 27
-10 0 -10 4 -18 9 -18 5 0 9 18 9 40 0 22 0 40 -1 39 -1 -1 -14 -6 -29 -12z"/>
<path d="M3161 7014 c0 -11 3 -14 6 -6 3 7 2 16 -1 19 -3 4 -6 -2 -5 -13z"/>
<path d="M3060 6943 c0 -10 5 -25 10 -33 8 -12 10 -9 10 12 0 15 -4 30 -10 33
-5 3 -10 -2 -10 -12z"/>
<path d="M3111 6934 c0 -11 3 -14 6 -6 3 7 2 16 -1 19 -3 4 -6 -2 -5 -13z"/>
<path d="M4505 7430 c3 -5 8 -10 11 -10 2 0 4 5 4 10 0 6 -5 10 -11 10 -5 0
-7 -4 -4 -10z"/>
<path d="M5540 6373 c0 -22 2 -25 10 -13 13 20 13 40 0 40 -5 0 -10 -12 -10
-27z"/>
<path d="M5792 6010 c0 -14 2 -19 5 -12 2 6 2 18 0 25 -3 6 -5 1 -5 -13z"/>
<path d="M5621 5964 c0 -11 3 -14 6 -6 3 7 2 16 -1 19 -3 4 -6 -2 -5 -13z"/>
<path d="M5572 5930 c0 -14 2 -19 5 -12 2 6 2 18 0 25 -3 6 -5 1 -5 -13z"/>
<path d="M5832 5845 c0 -16 2 -22 5 -12 2 9 2 23 0 30 -3 6 -5 -1 -5 -18z"/>
<path d="M5693 5745 c0 -22 2 -30 4 -17 2 12 2 30 0 40 -3 9 -5 -1 -4 -23z"/>
<path d="M2460 4566 c0 -25 4 -36 15 -36 9 0 15 9 15 24 0 13 -7 29 -15 36
-13 11 -15 7 -15 -24z"/>
<path d="M2507 4554 c-10 -11 -9 -52 3 -59 6 -3 13 1 16 10 8 19 -8 60 -19 49z"/>
<path d="M2421 4394 c0 -11 3 -14 6 -6 3 7 2 16 -1 19 -3 4 -6 -2 -5 -13z"/>
<path d="M2452 4310 c0 -14 2 -19 5 -12 2 6 2 18 0 25 -3 6 -5 1 -5 -13z"/>
<path d="M2452 4255 c0 -16 2 -22 5 -12 2 9 2 23 0 30 -3 6 -5 -1 -5 -18z"/>
<path d="M3740 9035 c0 -8 5 -15 10 -15 6 0 10 7 10 15 0 8 -4 15 -10 15 -5 0
-10 -7 -10 -15z"/>
<path d="M3650 8641 c0 -22 5 -43 10 -46 6 -4 10 12 10 39 0 25 -4 46 -10 46
-5 0 -10 -18 -10 -39z"/>
<path d="M3650 8540 c6 -11 13 -20 15 -20 3 0 5 9 5 20 0 11 -7 20 -15 20 -13
0 -14 -4 -5 -20z"/>
<path d="M3560 8454 c0 -8 5 -12 10 -9 6 3 10 10 10 16 0 5 -4 9 -10 9 -5 0
-10 -7 -10 -16z"/>
<path d="M3469 8408 c-4 -129 -2 -157 11 -138 13 20 13 170 0 170 -5 0 -10
-15 -11 -32z"/>
<path d="M3509 8355 c-1 -8 -1 -26 -1 -40 0 -40 1 -45 12 -45 6 0 10 23 10 50
0 28 -4 50 -10 50 -5 0 -10 -7 -11 -15z"/>
<path d="M3563 8255 c0 -27 2 -38 4 -22 2 15 2 37 0 50 -2 12 -4 0 -4 -28z"/>
<path d="M3595 8190 c-4 -12 -5 -24 -2 -27 3 -2 8 5 12 17 4 12 5 24 2 27 -3
2 -8 -5 -12 -17z"/>
<path d="M3681 8174 c0 -11 3 -14 6 -6 3 7 2 16 -1 19 -3 4 -6 -2 -5 -13z"/>
<path d="M3551 8158 c-1 -16 4 -28 9 -28 12 0 12 8 0 35 -8 18 -9 17 -9 -7z"/>
<path d="M3462 8137 c-1 -7 -5 -68 -9 -135 -6 -90 -5 -126 4 -133 8 -8 12 17
13 98 1 59 3 123 5 141 3 29 -10 57 -13 29z"/>
<path d="M3587 8125 c-4 -8 -2 -17 3 -20 6 -4 10 -4 10 -1 0 2 3 11 6 20 3 9
2 16 -4 16 -5 0 -12 -7 -15 -15z"/>
<path d="M3626 8095 c-3 -8 -1 -15 4 -15 6 0 10 7 10 15 0 8 -2 15 -4 15 -2 0
-6 -7 -10 -15z"/>
<path d="M3582 8073 c5 -25 28 -28 28 -4 0 12 -6 21 -16 21 -9 0 -14 -7 -12
-17z"/>
<path d="M7008 7937 c-5 -10 -8 -27 -8 -38 0 -10 -4 -19 -10 -19 -5 0 -10 9
-10 20 0 21 -20 29 -20 8 0 -7 -9 -2 -20 12 -19 25 -20 25 -20 3 0 -12 -4 -25
-10 -28 -5 -3 -10 -1 -10 6 0 8 -4 8 -15 -1 -8 -7 -15 -21 -15 -31 0 -10 -4
-21 -10 -24 -5 -3 -10 -1 -10 5 0 6 -4 8 -10 5 -5 -3 -10 -18 -10 -32 0 -20
-4 -24 -20 -20 -13 3 -21 -1 -25 -14 -7 -20 -25 -26 -25 -8 0 5 -4 7 -10 4 -5
-3 -10 -38 -10 -77 0 -69 -1 -71 -19 -54 -18 16 -19 16 -23 -6 -2 -13 -2 -45
0 -71 4 -43 5 -46 18 -30 12 16 15 16 24 3 6 -9 13 -11 18 -5 8 11 14 12 137
19 44 2 82 5 85 6 3 1 8 2 11 2 3 0 22 3 43 8 33 7 39 6 43 -11 3 -10 9 -19
13 -19 14 0 30 -61 30 -112 0 -29 -8 -66 -21 -91 -11 -23 -23 -70 -28 -103 -8
-72 -20 -86 -83 -100 -59 -14 -513 -8 -549 7 -46 18 -62 109 -19 109 21 0 35
16 21 24 -5 3 -21 7 -35 8 -28 3 -33 23 -28 111 1 20 -2 37 -7 37 -5 0 -12 12
-14 28 -3 23 -4 21 -6 -9 -1 -42 -9 -53 -27 -38 -11 9 -16 5 -24 -16 -13 -34
-13 -40 3 -54 9 -7 17 -7 24 0 7 7 12 4 16 -10 6 -24 -10 -38 -26 -22 -7 7
-14 5 -23 -7 -8 -10 -13 -12 -14 -4 0 6 -4 12 -10 12 -5 0 -9 -19 -9 -42 1
-24 3 -35 6 -25 6 23 27 17 32 -9 2 -10 12 -27 22 -37 10 -10 19 -24 19 -33 0
-8 7 -17 15 -20 8 -3 17 -16 21 -27 4 -12 13 -29 20 -37 35 -38 62 -77 69 -98
4 -13 16 -33 26 -43 10 -10 19 -28 19 -38 0 -10 7 -22 15 -25 9 -3 21 -19 26
-36 6 -16 15 -30 19 -30 4 0 13 -13 19 -30 5 -16 14 -30 20 -30 5 0 13 -9 16
-20 3 -11 11 -20 16 -20 19 0 88 -80 82 -95 -3 -8 0 -15 6 -15 6 0 11 5 11 10
0 6 5 10 10 10 6 0 10 -7 10 -15 0 -20 10 -19 26 3 12 15 13 15 14 -10 0 -29
15 -45 25 -28 5 7 12 5 21 -7 12 -15 15 -16 23 -4 8 12 11 9 16 -12 8 -32 13
-33 31 -9 12 15 13 14 14 -11 0 -35 22 -32 30 4 5 21 7 22 13 6 4 -10 7 -28 7
-40 1 -18 4 -16 20 13 l19 35 1 -30 c1 -27 2 -28 14 -12 17 22 22 22 30 -5 6
-22 7 -22 20 -5 13 17 15 17 24 1 17 -31 27 6 33 126 l5 115 2 -145 c2 -114 5
-141 14 -132 8 8 15 59 19 135 6 133 12 132 10 -3 -1 -47 3 -98 8 -115 8 -25
9 -26 10 -7 1 12 5 22 10 22 5 0 7 10 3 22 -3 14 -2 19 6 14 7 -4 12 -26 13
-49 1 -41 1 -41 10 -12 5 17 11 39 13 50 7 33 9 32 16 -15 l7 -45 8 33 c8 34
22 42 32 16 4 -12 7 -13 14 -3 11 19 21 6 29 -38 l8 -38 1 37 c1 43 13 55 32
32 12 -15 14 -14 20 7 6 24 6 24 18 -6 15 -36 27 -21 29 37 3 59 10 59 18 -1
8 -61 24 -58 24 5 0 61 18 55 26 -8 8 -61 10 -58 20 37 8 86 22 64 25 -40 l1
-70 9 55 c4 30 11 87 15 125 4 39 9 61 11 50 12 -65 17 -71 22 -25 4 25 10 43
16 40 10 -5 11 -8 15 -50 2 -24 3 -23 9 5 l7 30 17 -32 c10 -18 24 -33 31 -33
8 0 17 -8 21 -17 15 -36 24 36 18 147 -5 98 -8 109 -26 114 -18 4 -20 11 -14
77 6 76 0 132 -14 123 -5 -3 -10 -38 -10 -77 -1 -65 -3 -60 -15 57 -15 150
-22 175 -23 89 -1 -35 -5 -63 -11 -63 -5 0 -10 19 -10 42 0 45 -9 44 -27 -5
-11 -31 -12 -30 -12 26 -1 31 -5 57 -11 57 -5 0 -10 -11 -10 -24 0 -42 -18
-39 -25 4 -6 37 -8 39 -23 23 -16 -16 -17 -14 -23 28 -3 24 -7 35 -7 23 -1
-11 -8 -28 -15 -39 -13 -17 -14 -15 -21 15 -6 32 -7 33 -20 14 -12 -16 -15
-16 -19 -4 -3 8 -8 22 -10 30 -4 10 -6 7 -6 -7 -1 -31 -20 -38 -30 -12 l-8 23
-13 -24 -12 -23 -14 24 c-14 25 -17 20 -18 -35 -1 -16 -7 -31 -15 -34 -10 -3
-12 2 -8 19 4 14 4 34 1 46 -9 32 -31 7 -26 -28 2 -14 -1 -30 -7 -33 -7 -5
-11 9 -11 44 0 45 -2 51 -18 46 -15 -5 -21 2 -29 31 -10 37 -11 37 -12 8 -1
-23 -3 -27 -11 -15 -13 20 -13 217 0 225 6 4 10 -9 11 -32 l0 -38 14 50 c8 28
14 55 15 60 0 6 7 -1 15 -15 14 -25 14 -25 15 -2 0 13 6 22 15 22 8 0 15 -5
15 -12 0 -6 8 -4 19 6 17 16 19 16 25 -6 6 -21 7 -21 17 -5 5 9 14 17 19 17 5
0 11 -8 13 -17 4 -16 5 -16 6 0 1 26 24 16 32 -14 4 -13 7 -17 8 -8 1 9 7 22
15 28 11 9 15 7 21 -11 l7 -23 6 23 c4 13 12 23 17 23 6 0 12 -10 15 -23 5
-21 7 -21 13 -5 4 10 7 32 7 48 0 16 5 29 10 29 6 0 10 -23 10 -51 0 -46 2
-50 16 -38 11 9 14 22 10 41 -3 15 -1 28 4 28 6 0 10 -15 10 -34 0 -19 5 -38
10 -41 6 -4 10 25 10 79 0 47 -4 88 -10 91 -5 3 -11 -4 -11 -17 -1 -14 -5 -7
-12 20 -7 29 -15 42 -27 42 -10 0 -20 7 -24 15 -3 8 -12 12 -21 9 -8 -3 -15
-1 -15 5 0 6 -7 11 -15 11 -8 0 -15 -6 -15 -12 0 -7 -7 -2 -16 11 -12 17 -19
20 -24 11 -6 -9 -11 -6 -20 9 -7 13 -17 20 -26 17 -9 -3 -14 1 -14 14 0 31
-17 32 -28 3 l-10 -28 -1 26 c-1 30 -18 49 -37 42 -8 -3 -14 0 -14 7 0 7 -8 9
-19 5 -11 -3 -22 -1 -25 4 -4 6 -14 7 -22 4 -10 -4 -17 2 -21 16 -5 20 -7 20
-18 5 -11 -15 -13 -14 -19 10 -6 23 -9 26 -21 16 -8 -6 -19 -9 -24 -6 -5 4
-14 -1 -19 -10 -6 -10 -16 -15 -25 -11 -9 3 -19 2 -22 -3 -11 -18 -24 -10 -27
18 -2 22 -4 24 -10 9z m-102 -175 c-12 -11 -18 7 -10 30 l8 23 4 -23 c2 -13 1
-26 -2 -30z m-40 -9 c-10 -10 -19 5 -10 18 6 11 8 11 12 0 2 -7 1 -15 -2 -18z
m341 -205 c-3 -8 -6 -5 -6 6 -1 11 2 17 5 13 3 -3 4 -12 1 -19z m-40 -124 c-6
-92 -17 -91 -17 0 0 53 3 75 11 70 7 -4 9 -30 6 -70z m85 -196 c6 -17 -1 -38
-13 -38 -5 0 -9 11 -9 25 0 26 14 34 22 13z m128 -79 c0 -5 -4 -9 -10 -9 -5 0
-10 7 -10 16 0 8 5 12 10 9 6 -3 10 -10 10 -16z m-245 -129 c0 -8 -10 -16 -22
-18 -18 -3 -23 2 -23 18 0 16 5 21 23 18 12 -2 22 -10 22 -18z m-415 -120 c0
-12 -49 -5 -63 9 -9 9 -9 14 2 21 15 8 61 -14 61 -30z m130 25 c0 -8 -4 -15
-10 -15 -5 0 -10 7 -10 15 0 8 5 15 10 15 6 0 10 -7 10 -15z m910 -162 c0 -22
-2 -25 -10 -13 -13 20 -13 40 0 40 6 0 10 -12 10 -27z m-530 -177 c-8 -8 -10
10 -9 64 4 101 13 113 17 21 2 -44 -1 -78 -8 -85z m47 37 c-2 -21 -4 -6 -4 32
0 39 2 55 4 38 2 -18 2 -50 0 -70z m-220 55 c-3 -7 -5 -2 -5 12 0 14 2 19 5
13 2 -7 2 -19 0 -25z m350 -90 c-2 -24 -4 -5 -4 42 0 47 2 66 4 43 2 -24 2
-62 0 -85z m-90 60 c-2 -13 -4 -5 -4 17 -1 22 1 32 4 23 2 -10 2 -28 0 -40z
m53 -28 c0 -43 -4 -70 -11 -70 -6 0 -9 25 -7 70 1 39 6 70 10 70 4 0 8 -31 8
-70z m-53 -52 c-3 -7 -5 -2 -5 12 0 14 2 19 5 13 2 -7 2 -19 0 -25z"/>
<path d="M3701 7903 c-1 -17 4 -35 10 -38 19 -13 23 5 6 38 l-16 32 0 -32z"/>
<path d="M6700 7741 c0 -30 2 -52 5 -50 10 10 13 76 4 90 -6 9 -9 -4 -9 -40z"/>
<path d="M4051 7754 c0 -11 3 -14 6 -6 3 7 2 16 -1 19 -3 4 -6 -2 -5 -13z"/>
<path d="M7644 7623 c-9 -31 -9 -56 1 -100 l12 -58 4 49 c5 66 27 73 26 9 -1
-91 3 -124 13 -118 6 3 10 41 10 84 0 72 -2 80 -24 95 -16 10 -26 27 -28 48
l-3 33 -11 -42z"/>
<path d="M6662 7585 c0 -46 2 -54 8 -33 4 14 4 41 0 60 -7 28 -8 24 -8 -27z"/>
<path d="M6442 7475 c0 -16 2 -22 5 -12 2 9 2 23 0 30 -3 6 -5 -1 -5 -18z"/>
<path d="M6397 7474 c-10 -11 -9 -54 2 -54 6 0 12 4 15 9 8 12 -8 54 -17 45z"/>
<path d="M5751 7454 c0 -11 3 -14 6 -6 3 7 2 16 -1 19 -3 4 -6 -2 -5 -13z"/>
<path d="M5703 7440 c-1 -11 2 -22 8 -25 5 -4 9 3 9 14 0 26 -15 35 -17 11z"/>
<path d="M7213 7395 c0 -27 2 -38 4 -22 2 15 2 37 0 50 -2 12 -4 0 -4 -28z"/>
<path d="M6525 7340 c3 -5 8 -10 11 -10 2 0 4 5 4 10 0 6 -5 10 -11 10 -5 0
-7 -4 -4 -10z"/>
<path d="M6127 7328 c-3 -8 -2 -21 3 -27 11 -19 23 5 12 25 -8 14 -10 14 -15
2z"/>
<path d="M5950 7300 c0 -30 13 -40 25 -20 4 6 14 9 23 8 11 -2 18 5 20 20 4
24 -7 29 -26 10 -9 -9 -12 -9 -12 0 0 7 -7 12 -15 12 -10 0 -15 -10 -15 -30z"/>
<path d="M6091 7314 c0 -11 3 -14 6 -6 3 7 2 16 -1 19 -3 4 -6 -2 -5 -13z"/>
<path d="M7652 7215 c0 -16 2 -22 5 -12 2 9 2 23 0 30 -3 6 -5 -1 -5 -18z"/>
<path d="M7810 7175 c0 -14 5 -25 10 -25 6 0 10 11 10 25 0 14 -4 25 -10 25
-5 0 -10 -11 -10 -25z"/>
<path d="M7777 7077 c-4 -10 -7 -26 -7 -35 1 -15 2 -15 11 1 6 10 9 25 7 35
-3 16 -4 15 -11 -1z"/>
<path d="M5822 7040 c0 -14 2 -19 5 -12 2 6 2 18 0 25 -3 6 -5 1 -5 -13z"/>
<path d="M7861 7014 c0 -11 3 -14 6 -6 3 7 2 16 -1 19 -3 4 -6 -2 -5 -13z"/>
<path d="M7772 6990 c0 -14 2 -19 5 -12 2 6 2 18 0 25 -3 6 -5 1 -5 -13z"/>
<path d="M5720 6778 c0 -25 3 -29 10 -18 13 20 13 50 0 50 -5 0 -10 -15 -10
-32z"/>
<path d="M7811 6794 c0 -11 3 -14 6 -6 3 7 2 16 -1 19 -3 4 -6 -2 -5 -13z"/>
<path d="M7811 6734 c0 -11 3 -14 6 -6 3 7 2 16 -1 19 -3 4 -6 -2 -5 -13z"/>
<path d="M5903 6675 c0 -22 2 -30 4 -17 2 12 2 30 0 40 -3 9 -5 -1 -4 -23z"/>
<path d="M7807 6673 c-3 -15 -1 -36 3 -47 7 -16 9 -9 9 27 1 52 -4 61 -12 20z"/>
<path d="M5721 6634 c0 -11 3 -14 6 -6 3 7 2 16 -1 19 -3 4 -6 -2 -5 -13z"/>
<path d="M7637 6607 c-4 -10 -7 -28 -7 -40 1 -20 2 -20 11 -4 6 10 9 28 7 40
-3 20 -4 20 -11 4z"/>
<path d="M4896 6576 c-6 -26 -26 -36 -26 -14 0 8 -6 7 -16 -4 -12 -12 -15 -26
-10 -52 9 -45 26 -57 26 -17 0 36 15 41 24 9 5 -19 8 -21 16 -8 12 18 13 80 1
98 -6 10 -10 7 -15 -12z"/>
<path d="M4772 6560 c0 -14 2 -19 5 -12 2 6 2 18 0 25 -3 6 -5 1 -5 -13z"/>
<path d="M4806 6535 c-7 -26 -25 -35 -27 -12 -1 22 -18 -27 -18 -56 -1 -32 15
-28 29 7 8 19 9 18 10 -9 1 -29 1 -29 15 -11 16 21 21 106 6 106 -5 0 -12 -11
-15 -25z"/>
<path d="M4511 6514 c0 -11 3 -14 6 -6 3 7 2 16 -1 19 -3 4 -6 -2 -5 -13z"/>
<path d="M4636 6462 c-4 -18 -5 -36 -2 -39 11 -12 17 5 14 39 l-3 33 -9 -33z"/>
<path d="M4677 6465 c-3 -17 -1 -34 3 -39 14 -14 24 22 13 47 -9 21 -10 20
-16 -8z"/>
<path d="M4723 6470 c-6 -14 -7 -29 -2 -34 13 -15 21 -1 17 31 l-4 28 -11 -25z"/>
<path d="M6152 6460 c0 -14 2 -19 5 -12 2 6 2 18 0 25 -3 6 -5 1 -5 -13z"/>
<path d="M7332 6460 c0 -14 2 -19 5 -12 2 6 2 18 0 25 -3 6 -5 1 -5 -13z"/>
<path d="M4544 6437 c-9 -24 6 -44 18 -22 7 11 6 21 -1 28 -7 7 -12 6 -17 -6z"/>
<path d="M4512 6420 c0 -14 2 -19 5 -12 2 6 2 18 0 25 -3 6 -5 1 -5 -13z"/>
<path d="M4460 6404 c0 -14 4 -23 10 -19 6 3 10 15 10 26 0 10 -4 19 -10 19
-5 0 -10 -12 -10 -26z"/>
<path d="M6147 6400 c-7 -28 -10 -236 -2 -229 2 3 7 39 10 79 3 41 7 82 10 90
2 8 1 31 -3 50 -8 33 -8 34 -15 10z"/>
<path d="M3461 6215 c1 -48 1 -49 10 -17 6 21 6 39 0 50 -8 13 -10 5 -10 -33z"/>
<path d="M3501 6224 c0 -11 3 -14 6 -6 3 7 2 16 -1 19 -3 4 -6 -2 -5 -13z"/>
<path d="M3285 6219 c-10 -15 3 -25 16 -12 7 7 7 13 1 17 -6 3 -14 1 -17 -5z"/>
<path d="M3542 6190 c0 -14 2 -19 5 -12 2 6 2 18 0 25 -3 6 -5 1 -5 -13z"/>
<path d="M3366 6145 c-3 -8 -1 -15 4 -15 6 0 10 7 10 15 0 8 -2 15 -4 15 -2 0
-6 -7 -10 -15z"/>
<path d="M4576 6117 c-8 -43 2 -69 16 -43 5 9 16 16 23 16 8 0 15 9 15 20 0
13 -7 20 -19 20 -11 0 -21 6 -24 13 -2 6 -7 -5 -11 -26z"/>
<path d="M3281 6114 c0 -11 3 -14 6 -6 3 7 2 16 -1 19 -3 4 -6 -2 -5 -13z"/>
<path d="M3279 6010 c-3 -36 -5 -67 -3 -69 11 -12 15 13 12 70 l-3 64 -6 -65z"/>
<path d="M6044 5929 c-3 -6 -1 -16 5 -22 8 -8 11 -5 11 11 0 24 -5 28 -16 11z"/>
<path d="M3350 5791 c0 -17 2 -31 4 -31 8 0 13 51 5 56 -5 3 -9 -9 -9 -25z"/>
<path d="M3382 5460 c0 -14 2 -19 5 -12 2 6 2 18 0 25 -3 6 -5 1 -5 -13z"/>
<path d="M3728 5424 c-5 -4 -8 -16 -8 -28 0 -14 3 -17 11 -9 6 6 9 19 7 28 -1
9 -6 13 -10 9z"/>
<path d="M3761 5324 c0 -11 3 -14 6 -6 3 7 2 16 -1 19 -3 4 -6 -2 -5 -13z"/>
<path d="M6900 5270 c0 -5 5 -10 10 -10 6 0 10 5 10 10 0 6 -4 10 -10 10 -5 0
-10 -4 -10 -10z"/>
<path d="M3591 5234 c0 -11 3 -14 6 -6 3 7 2 16 -1 19 -3 4 -6 -2 -5 -13z"/>
<path d="M6731 5234 c0 -11 3 -14 6 -6 3 7 2 16 -1 19 -3 4 -6 -2 -5 -13z"/>
<path d="M3632 5195 c0 -16 2 -22 5 -12 2 9 2 23 0 30 -3 6 -5 -1 -5 -18z"/>
<path d="M3710 5200 c0 -5 5 -10 10 -10 6 0 10 5 10 10 0 6 -4 10 -10 10 -5 0
-10 -4 -10 -10z"/>
<path d="M6992 5175 c0 -16 2 -22 5 -12 2 9 2 23 0 30 -3 6 -5 -1 -5 -18z"/>
<path d="M6951 5174 c0 -11 3 -14 6 -6 3 7 2 16 -1 19 -3 4 -6 -2 -5 -13z"/>
<path d="M3971 5143 c0 -31 2 -34 9 -18 12 28 12 55 0 55 -5 0 -10 -17 -9 -37z"/>
<path d="M5592 5150 c0 -14 2 -19 5 -12 2 6 2 18 0 25 -3 6 -5 1 -5 -13z"/>
<path d="M3491 5134 c0 -11 3 -14 6 -6 3 7 2 16 -1 19 -3 4 -6 -2 -5 -13z"/>
<path d="M5192 5100 c0 -19 2 -27 5 -17 2 9 2 25 0 35 -3 9 -5 1 -5 -18z"/>
<path d="M5230 5100 c0 -11 5 -20 10 -20 6 0 10 9 10 20 0 11 -4 20 -10 20 -5
0 -10 -9 -10 -20z"/>
<path d="M5281 5104 c0 -11 3 -14 6 -6 3 7 2 16 -1 19 -3 4 -6 -2 -5 -13z"/>
<path d="M5320 5101 c-10 -20 -3 -111 9 -111 4 0 8 29 9 65 3 68 0 78 -18 46z"/>
<path d="M3882 5065 c0 -16 2 -22 5 -12 2 9 2 23 0 30 -3 6 -5 -1 -5 -18z"/>
<path d="M5442 4953 c-1 -103 2 -132 9 -113 6 14 8 37 5 52 -3 15 -1 30 4 33
6 3 10 42 10 86 0 59 -3 79 -13 79 -11 0 -14 -30 -15 -137z"/>
<path d="M5491 5008 c1 -57 4 -75 9 -58 12 37 12 140 0 140 -6 0 -10 -34 -9
-82z"/>
<path d="M5535 5070 c-9 -29 -9 -96 1 -112 10 -15 21 25 23 84 1 41 -14 59
-24 28z"/>
<path d="M5592 5070 c0 -14 2 -19 5 -12 2 6 2 18 0 25 -3 6 -5 1 -5 -13z"/>
<path d="M5236 5052 c-2 -4 -1 -14 5 -22 7 -12 9 -10 9 8 0 23 -5 28 -14 14z"/>
<path d="M5144 5009 c-3 -6 -1 -16 5 -22 8 -8 11 -5 11 11 0 24 -5 28 -16 11z"/>
<path d="M3531 4984 c0 -11 3 -14 6 -6 3 7 2 16 -1 19 -3 4 -6 -2 -5 -13z"/>
<path d="M5273 4985 c-3 -9 -3 -18 -1 -21 3 -3 8 4 11 16 6 23 -1 27 -10 5z"/>
<path d="M4491 4963 c0 -12 -4 -30 -7 -40 -5 -17 -5 -17 6 0 6 10 9 28 7 40
-4 22 -4 22 -6 0z"/>
<path d="M5054 4885 c0 -49 1 -71 3 -48 2 23 2 64 0 90 -2 26 -3 8 -3 -42z"/>
<path d="M5006 4925 c-3 -9 -6 -33 -6 -53 0 -26 3 -33 11 -25 11 11 16 80 6
89 -2 3 -7 -2 -11 -11z"/>
<path d="M5141 4914 c0 -11 3 -14 6 -6 3 7 2 16 -1 19 -3 4 -6 -2 -5 -13z"/>
<path d="M3517 4895 c-2 -14 -1 -28 3 -30 4 -3 10 7 13 20 2 14 1 28 -3 30 -4
3 -10 -7 -13 -20z"/>
<path d="M4441 4904 c0 -11 3 -14 6 -6 3 7 2 16 -1 19 -3 4 -6 -2 -5 -13z"/>
<path d="M4522 4900 c0 -14 2 -19 5 -12 2 6 2 18 0 25 -3 6 -5 1 -5 -13z"/>
<path d="M4963 4810 c0 -30 2 -43 4 -27 2 15 2 39 0 55 -2 15 -4 2 -4 -28z"/>
<path d="M3522 4830 c0 -14 2 -19 5 -12 2 6 2 18 0 25 -3 6 -5 1 -5 -13z"/>
<path d="M4922 4790 c0 -19 2 -27 5 -17 2 9 2 25 0 35 -3 9 -5 1 -5 -18z"/>
<path d="M7432 4800 c0 -14 2 -19 5 -12 2 6 2 18 0 25 -3 6 -5 1 -5 -13z"/>
<path d="M5221 4755 c1 -48 1 -49 9 -15 5 19 4 41 0 50 -6 10 -9 -1 -9 -35z"/>
<path d="M4302 4755 c0 -16 2 -22 5 -12 2 9 2 23 0 30 -3 6 -5 -1 -5 -18z"/>
<path d="M4347 4773 c-11 -10 -8 -51 3 -58 6 -4 10 8 10 29 0 37 -2 41 -13 29z"/>
<path d="M3598 4635 c-3 -14 -1 -28 3 -31 5 -3 9 9 9 25 0 38 -6 40 -12 6z"/>
<path d="M4336 4615 c-7 -19 -21 -562 -13 -555 10 10 32 570 22 570 -2 0 -5
-7 -9 -15z"/>
<path d="M4548 4527 c-5 -91 -4 -106 8 -95 8 9 12 178 4 183 -4 3 -10 -37 -12
-88z"/>
<path d="M4992 4530 c0 -19 2 -27 5 -17 2 9 2 25 0 35 -3 9 -5 1 -5 -18z"/>
<path d="M3601 4534 c0 -11 3 -14 6 -6 3 7 2 16 -1 19 -3 4 -6 -2 -5 -13z"/>
<path d="M3634 4415 c0 -66 1 -92 3 -57 2 34 2 88 0 120 -2 31 -3 3 -3 -63z"/>
<path d="M4292 4460 c0 -14 2 -19 5 -12 2 6 2 18 0 25 -3 6 -5 1 -5 -13z"/>
<path d="M2110 4385 c0 -27 3 -45 7 -42 7 8 6 77 -2 85 -3 3 -5 -16 -5 -43z"/>
<path d="M4552 4375 c0 -16 2 -22 5 -12 2 9 2 23 0 30 -3 6 -5 -1 -5 -18z"/>
<path d="M4542 4310 c0 -14 2 -19 5 -12 2 6 2 18 0 25 -3 6 -5 1 -5 -13z"/>
<path d="M6002 4275 c0 -16 2 -22 5 -12 2 9 2 23 0 30 -3 6 -5 -1 -5 -18z"/>
<path d="M2182 4278 c6 -18 28 -21 28 -4 0 9 -7 16 -16 16 -9 0 -14 -5 -12
-12z"/>
<path d="M3620 4253 c0 -10 5 -25 10 -33 7 -11 10 -7 10 18 0 17 -4 32 -10 32
-5 0 -10 -8 -10 -17z"/>
<path d="M3661 4180 c-1 -41 -4 -99 -5 -128 -2 -30 1 -49 6 -44 5 5 7 62 5
128 -2 91 -3 101 -6 44z"/>
<path d="M4491 4224 c0 -11 3 -14 6 -6 3 7 2 16 -1 19 -3 4 -6 -2 -5 -13z"/>
<path d="M3881 4114 c0 -11 3 -14 6 -6 3 7 2 16 -1 19 -3 4 -6 -2 -5 -13z"/>
<path d="M4048 4093 c-3 -10 -4 -45 -2 -78 3 -76 2 -75 13 -75 4 0 9 38 9 85
1 78 -9 110 -20 68z"/>
<path d="M4012 4040 c0 -19 2 -27 5 -17 2 9 2 25 0 35 -3 9 -5 1 -5 -18z"/>
<path d="M4620 4044 c0 -8 5 -12 10 -9 6 3 10 10 10 16 0 5 -4 9 -10 9 -5 0
-10 -7 -10 -16z"/>
<path d="M4576 4034 c-8 -21 -8 -129 1 -121 7 8 17 137 10 137 -3 0 -8 -7 -11
-16z"/>
<path d="M3870 4031 c0 -6 5 -13 10 -16 6 -3 10 1 10 9 0 9 -4 16 -10 16 -5 0
-10 -4 -10 -9z"/>
<path d="M3791 3994 c0 -11 3 -14 6 -6 3 7 2 16 -1 19 -3 4 -6 -2 -5 -13z"/>
<path d="M4085 4000 c-4 -7 -2 -16 6 -21 10 -6 11 -9 2 -9 -8 0 -13 -15 -13
-40 0 -39 18 -58 22 -22 7 79 0 119 -17 92z"/>
<path d="M3792 3950 c0 -14 2 -19 5 -12 2 6 2 18 0 25 -3 6 -5 1 -5 -13z"/>
<path d="M4133 3910 c0 -30 2 -43 4 -27 2 15 2 39 0 55 -2 15 -4 2 -4 -28z"/>
<path d="M3778 3839 c-1 -34 0 -63 4 -65 3 -2 8 25 10 61 1 36 0 65 -4 65 -3
0 -8 -27 -10 -61z"/>
<path d="M3742 3870 c0 -14 2 -19 5 -12 2 6 2 18 0 25 -3 6 -5 1 -5 -13z"/>
<path d="M4038 3765 c-4 -71 -5 -131 -2 -134 12 -12 14 17 12 135 l-3 129 -7
-130z"/>
<path d="M4352 3860 c0 -19 2 -27 5 -17 2 9 2 25 0 35 -3 9 -5 1 -5 -18z"/>
<path d="M4572 3865 c0 -16 2 -22 5 -12 2 9 2 23 0 30 -3 6 -5 -1 -5 -18z"/>
<path d="M3911 3834 c0 -11 3 -14 6 -6 3 7 2 16 -1 19 -3 4 -6 -2 -5 -13z"/>
<path d="M3988 3733 c-2 -35 4 -78 13 -87 5 -6 9 10 9 41 0 48 -18 87 -22 46z"/>
<path d="M4302 3710 c0 -14 2 -19 5 -12 2 6 2 18 0 25 -3 6 -5 1 -5 -13z"/>
<path d="M3902 3640 c0 -19 2 -27 5 -17 2 9 2 25 0 35 -3 9 -5 1 -5 -18z"/>
<path d="M5183 3585 c0 -22 2 -30 4 -17 2 12 2 30 0 40 -3 9 -5 -1 -4 -23z"/>
<path d="M4030 3586 c0 -22 3 -27 11 -19 8 8 8 16 0 30 -9 16 -10 14 -11 -11z"/>
<path d="M4162 3585 c0 -16 2 -22 5 -12 2 9 2 23 0 30 -3 6 -5 -1 -5 -18z"/>
<path d="M4200 3584 c0 -14 4 -23 10 -19 6 3 10 15 10 26 0 10 -4 19 -10 19
-5 0 -10 -12 -10 -26z"/>
<path d="M4240 3551 c0 -11 5 -23 10 -26 6 -4 10 5 10 19 0 14 -4 26 -10 26
-5 0 -10 -9 -10 -19z"/>
<path d="M4202 3530 c0 -14 2 -19 5 -12 2 6 2 18 0 25 -3 6 -5 1 -5 -13z"/>
<path d="M5177 3508 c-8 -58 -6 -98 3 -98 6 0 10 29 10 65 0 70 -6 85 -13 33z"/>
<path d="M5221 3514 c0 -11 3 -14 6 -6 3 7 2 16 -1 19 -3 4 -6 -2 -5 -13z"/>
<path d="M4162 3490 c0 -14 2 -19 5 -12 2 6 2 18 0 25 -3 6 -5 1 -5 -13z"/>
<path d="M5125 3449 c-6 -37 -2 -59 10 -48 10 11 17 89 7 89 -6 0 -13 -18 -17
-41z"/>
<path d="M5307 3398 c-14 -36 -15 -45 -7 -59 12 -19 23 10 18 48 -3 22 -6 24
-11 11z"/>
<path d="M5527 3376 c-4 -15 -6 -31 -2 -34 10 -10 16 6 13 35 l-3 28 -8 -29z"/>
<path d="M5212 3360 c0 -19 2 -27 5 -17 2 9 2 25 0 35 -3 9 -5 1 -5 -18z"/>
<path d="M5570 3340 c0 -29 2 -51 5 -48 8 7 9 87 2 95 -4 3 -7 -18 -7 -47z"/>
<path d="M5841 3374 c0 -11 3 -14 6 -6 3 7 2 16 -1 19 -3 4 -6 -2 -5 -13z"/>
<path d="M5527 3303 c-4 -3 -7 -31 -7 -61 0 -70 8 -64 14 11 5 58 4 62 -7 50z"/>
<path d="M5302 3240 l1 -65 7 50 c4 28 3 57 -1 65 -5 9 -8 -11 -7 -50z"/>
<path d="M5600 3240 c0 -16 5 -30 10 -30 6 0 10 14 10 30 0 17 -4 30 -10 30
-5 0 -10 -13 -10 -30z"/>
<path d="M5741 3024 c0 -11 3 -14 6 -6 3 7 2 16 -1 19 -3 4 -6 -2 -5 -13z"/>
<path d="M6952 3010 c0 -14 2 -19 5 -12 2 6 2 18 0 25 -3 6 -5 1 -5 -13z"/>
<path d="M6097 2994 c-4 -4 -7 -14 -7 -23 0 -11 3 -12 11 -4 6 6 10 16 7 23
-2 6 -7 8 -11 4z"/>
<path d="M6001 2974 c0 -11 3 -14 6 -6 3 7 2 16 -1 19 -3 4 -6 -2 -5 -13z"/>
<path d="M7211 2895 c1 -58 3 -72 9 -50 11 44 11 98 0 115 -7 10 -9 -10 -9
-65z"/>
<path d="M6952 2930 c0 -14 2 -19 5 -12 2 6 2 18 0 25 -3 6 -5 1 -5 -13z"/>
<path d="M5872 2910 c0 -14 2 -19 5 -12 2 6 2 18 0 25 -3 6 -5 1 -5 -13z"/>
<path d="M6322 2880 c0 -14 2 -19 5 -12 2 6 2 18 0 25 -3 6 -5 1 -5 -13z"/>
<path d="M6362 2880 c0 -14 2 -19 5 -12 2 6 2 18 0 25 -3 6 -5 1 -5 -13z"/>
<path d="M6982 2480 c0 -14 2 -19 5 -12 2 6 2 18 0 25 -3 6 -5 1 -5 -13z"/>
<path d="M6852 2425 c0 -16 2 -22 5 -12 2 9 2 23 0 30 -3 6 -5 -1 -5 -18z"/>
<path d="M6981 2374 c0 -11 3 -14 6 -6 3 7 2 16 -1 19 -3 4 -6 -2 -5 -13z"/>
<path d="M5936 2263 c-13 -176 -17 -493 -8 -493 13 0 20 73 21 210 1 63 3 177
4 253 1 75 -1 137 -4 137 -3 0 -9 -48 -13 -107z"/>
<path d="M6568 2255 c-1 -30 0 -55 5 -55 4 0 7 25 7 55 0 71 -7 71 -12 0z"/>
<path d="M6660 2273 c0 -28 3 -34 10 -23 13 20 13 60 0 60 -5 0 -10 -17 -10
-37z"/>
<path d="M6981 2284 c0 -11 3 -14 6 -6 3 7 2 16 -1 19 -3 4 -6 -2 -5 -13z"/>
<path d="M6974 2232 c-6 -16 -8 -36 -3 -43 11 -18 22 10 17 46 l-3 28 -11 -31z"/>
<path d="M6527 2223 c-10 -9 -9 -23 1 -23 5 0 9 7 9 15 0 17 -1 18 -10 8z"/>
<path d="M6437 2200 c3 -11 7 -20 9 -20 2 0 4 9 4 20 0 11 -4 20 -9 20 -5 0
-7 -9 -4 -20z"/>
<path d="M6700 2209 c0 -5 5 -7 10 -4 6 3 10 8 10 11 0 2 -4 4 -10 4 -5 0 -10
-5 -10 -11z"/>
<path d="M6937 2213 c-11 -10 -8 -43 3 -43 6 0 10 11 10 25 0 26 -2 29 -13 18z"/>
<path d="M6392 2180 c0 -14 2 -19 5 -12 2 6 2 18 0 25 -3 6 -5 1 -5 -13z"/>
<path d="M5979 2158 c-1 -13 -2 -45 -4 -73 -15 -236 -9 -392 9 -270 13 82 17
365 6 365 -6 0 -10 -10 -11 -22z"/>
<path d="M6700 2149 c0 -5 5 -7 10 -4 6 3 10 8 10 11 0 2 -4 4 -10 4 -5 0 -10
-5 -10 -11z"/>
<path d="M6342 2130 c0 -14 2 -19 5 -12 2 6 2 18 0 25 -3 6 -5 1 -5 -13z"/>
<path d="M6657 2098 c-3 -18 -1 -37 4 -42 5 -6 9 7 9 32 0 50 -6 54 -13 10z"/>
<path d="M6701 2068 c1 -68 6 -61 11 15 2 26 0 47 -4 47 -5 0 -7 -28 -7 -62z"/>
<path d="M6746 2121 c-4 -7 -5 -15 -2 -18 9 -9 19 4 14 18 -4 11 -6 11 -12 0z"/>
<path d="M6611 2084 c-1 -17 -4 -53 -7 -80 -4 -33 -3 -46 3 -39 14 14 22 95
13 125 -8 24 -8 24 -9 -6z"/>
<path d="M6342 2080 c0 -14 2 -19 5 -12 2 6 2 18 0 25 -3 6 -5 1 -5 -13z"/>
<path d="M6435 2080 c-3 -5 -1 -10 4 -10 6 0 11 5 11 10 0 6 -2 10 -4 10 -3 0
-8 -4 -11 -10z"/>
<path d="M6382 2050 c0 -19 2 -27 5 -17 2 9 2 25 0 35 -3 9 -5 1 -5 -18z"/>
<path d="M6517 2036 c-4 -27 -7 -67 -6 -90 l1 -41 14 32 c10 23 11 48 6 90
l-8 58 -7 -49z"/>
<path d="M6561 1988 c1 -75 2 -78 10 -38 11 64 11 120 -1 120 -6 0 -9 -33 -9
-82z"/>
<path d="M6338 2013 c-10 -54 -9 -131 2 -138 7 -4 10 22 10 79 0 89 -4 106
-12 59z"/>
<path d="M6661 2024 c0 -11 3 -14 6 -6 3 7 2 16 -1 19 -3 4 -6 -2 -5 -13z"/>
<path d="M6429 2008 c-6 -24 -6 -78 0 -83 5 -2 11 13 13 36 2 22 0 43 -4 45
-4 3 -8 4 -9 2z"/>
<path d="M6378 1969 c-4 -20 -4 -56 0 -80 l6 -44 6 37 c4 20 4 56 0 80 l-6 43
-6 -36z"/>
<path d="M6330 1845 c0 -8 2 -15 4 -15 2 0 6 7 10 15 3 8 1 15 -4 15 -6 0 -10
-7 -10 -15z"/>
<path d="M7864 1717 c-4 -29 -8 -60 -9 -70 -1 -10 -6 -21 -10 -25 -5 -4 -5 1
-2 10 3 10 2 20 -3 23 -6 4 -10 -26 -10 -75 0 -52 4 -79 10 -75 6 4 10 -7 10
-27 1 -18 7 -55 14 -83 11 -41 14 -45 18 -25 l4 25 11 -25 c5 -14 9 -98 7
-197 -1 -95 1 -173 4 -173 11 0 112 222 112 245 0 6 11 33 24 59 13 25 29 67
36 92 7 24 17 47 21 50 12 7 11 204 0 204 -5 0 -11 -6 -14 -12 -2 -7 -8 4 -12
25 -7 36 -8 37 -25 22 -17 -16 -19 -15 -22 6 -4 30 -28 37 -28 8 0 -12 -3 -19
-7 -15 -4 4 -8 17 -8 28 0 12 -6 23 -12 25 -9 3 -13 -6 -13 -26 0 -16 -5 -33
-11 -37 -8 -4 -9 1 -4 15 4 14 0 32 -11 49 l-18 27 -7 -25 c-6 -22 -7 -23 -8
-4 -1 12 -7 24 -15 27 -10 4 -16 -8 -22 -46z"/>
<path d="M3953 1720 c0 -25 2 -35 4 -22 2 12 2 32 0 45 -2 12 -4 2 -4 -23z"/>
<path d="M5280 1730 c0 -5 5 -10 10 -10 6 0 10 5 10 10 0 6 -4 10 -10 10 -5 0
-10 -4 -10 -10z"/>
<path d="M3770 1675 c0 -22 -3 -51 -6 -65 -4 -20 -3 -22 5 -9 15 24 21 82 10
100 -6 10 -9 2 -9 -26z"/>
<path d="M3900 1673 c0 -28 3 -34 10 -23 13 20 13 60 0 60 -5 0 -10 -17 -10
-37z"/>
<path d="M3855 1690 c-3 -5 -1 -10 4 -10 6 0 11 5 11 10 0 6 -2 10 -4 10 -3 0
-8 -4 -11 -10z"/>
<path d="M3718 1589 c-2 -57 -1 -117 2 -134 3 -16 7 26 10 95 3 69 3 129 -1
134 -4 5 -9 -38 -11 -95z"/>
<path d="M5061 1674 c0 -11 3 -14 6 -6 3 7 2 16 -1 19 -3 4 -6 -2 -5 -13z"/>
<path d="M3852 1473 c-1 -89 -5 -170 -8 -180 -5 -13 -4 -15 5 -7 8 7 11 60 8
180 l-3 169 -2 -162z"/>
<path d="M4790 1556 c0 -31 6 -34 13 -6 3 11 1 23 -4 26 -5 3 -9 -6 -9 -20z"/>
<path d="M3758 1448 c-2 -51 0 -111 3 -133 4 -24 7 14 8 93 0 72 -1 132 -3
132 -2 0 -6 -42 -8 -92z"/>
<path d="M3813 1500 c0 -25 2 -35 4 -22 2 12 2 32 0 45 -2 12 -4 2 -4 -23z"/>
<path d="M4071 1514 c0 -11 3 -14 6 -6 3 7 2 16 -1 19 -3 4 -6 -2 -5 -13z"/>
<path d="M4831 1504 c0 -11 3 -14 6 -6 3 7 2 16 -1 19 -3 4 -6 -2 -5 -13z"/>
<path d="M4161 1455 l1 -50 8 40 c5 22 4 44 -1 50 -5 5 -9 -11 -8 -40z"/>
<path d="M4073 1445 c0 -22 2 -30 4 -17 2 12 2 30 0 40 -3 9 -5 -1 -4 -23z"/>
<path d="M4110 1459 c0 -11 5 -17 10 -14 6 3 10 13 10 21 0 8 -4 14 -10 14 -5
0 -10 -9 -10 -21z"/>
<path d="M3811 1414 c0 -11 3 -14 6 -6 3 7 2 16 -1 19 -3 4 -6 -2 -5 -13z"/>
<path d="M4112 1410 c0 -14 2 -19 5 -12 2 6 2 18 0 25 -3 6 -5 1 -5 -13z"/>
<path d="M3710 1400 c0 -5 5 -10 10 -10 6 0 10 5 10 10 0 6 -4 10 -10 10 -5 0
-10 -4 -10 -10z"/>
<path d="M4201 1345 l1 -60 9 50 c5 30 4 54 -1 59 -7 7 -10 -12 -9 -49z"/>
<path d="M4247 1384 c-10 -10 -9 -62 2 -68 11 -7 24 55 13 66 -5 5 -11 5 -15
2z"/>
<path d="M4743 1355 c0 -22 2 -30 4 -17 2 12 2 30 0 40 -3 9 -5 -1 -4 -23z"/>
<path d="M4697 1343 c-3 -16 -1 -32 4 -37 5 -6 9 4 9 27 0 44 -6 48 -13 10z"/>
<path d="M3712 1320 c-1 -23 3 -38 9 -35 12 8 12 75 0 75 -5 0 -9 -18 -9 -40z"/>
<path d="M2957 1330 c-5 -19 2 -91 9 -99 2 -2 4 23 4 57 0 64 -4 77 -13 42z"/>
<path d="M7872 1320 c0 -14 2 -19 5 -12 2 6 2 18 0 25 -3 6 -5 1 -5 -13z"/>
<path d="M3801 1304 c0 -11 3 -14 6 -6 3 7 2 16 -1 19 -3 4 -6 -2 -5 -13z"/>
<path d="M4602 1240 c0 -14 2 -19 5 -12 2 6 2 18 0 25 -3 6 -5 1 -5 -13z"/>
<path d="M3843 1200 c0 -30 2 -43 4 -27 2 15 2 39 0 55 -2 15 -4 2 -4 -28z"/>
<path d="M4241 1214 c0 -11 3 -14 6 -6 3 7 2 16 -1 19 -3 4 -6 -2 -5 -13z"/>
<path d="M4642 1210 c0 -14 2 -19 5 -12 2 6 2 18 0 25 -3 6 -5 1 -5 -13z"/>
<path d="M4592 1145 c-1 -32 2 -55 8 -55 5 0 10 24 10 55 0 71 -14 71 -18 0z"/>
<path d="M3753 1120 c0 -30 2 -43 4 -27 2 15 2 39 0 55 -2 15 -4 2 -4 -28z"/>
<path d="M3786 1025 c-4 -82 -10 -197 -11 -255 -2 -58 -6 -161 -9 -230 -11
-204 -17 -545 -11 -538 6 6 14 115 19 283 2 55 9 235 15 400 7 165 11 343 9
395 -3 94 -3 94 -12 -55z"/>
<path d="M3883 1125 c0 -27 2 -38 4 -22 2 15 2 37 0 50 -2 12 -4 0 -4 -28z"/>
<path d="M4949 1148 c-16 -30 -3 -55 30 -55 31 0 43 20 34 56 -6 25 -50 25
-64 -1z"/>
<path d="M4641 1144 c0 -11 3 -14 6 -6 3 7 2 16 -1 19 -3 4 -6 -2 -5 -13z"/>
<path d="M4921 1144 c0 -11 3 -14 6 -6 3 7 2 16 -1 19 -3 4 -6 -2 -5 -13z"/>
<path d="M4103 1085 c0 -22 2 -30 4 -17 2 12 2 30 0 40 -3 9 -5 -1 -4 -23z"/>
<path d="M4326 1104 c-4 -9 -4 -19 -1 -22 2 -3 7 3 11 12 4 9 4 19 1 22 -2 3
-7 -3 -11 -12z"/>
<path d="M4014 1010 c0 -58 1 -81 3 -52 2 28 2 76 0 105 -2 28 -3 5 -3 -53z"/>
<path d="M4642 1080 c0 -19 2 -27 5 -17 2 9 2 25 0 35 -3 9 -5 1 -5 -18z"/>
<path d="M4323 1015 c0 -33 2 -45 4 -27 2 18 2 45 0 60 -2 15 -4 0 -4 -33z"/>
<path d="M4590 1038 c0 -25 3 -29 10 -18 13 20 13 50 0 50 -5 0 -10 -15 -10
-32z"/>
<path d="M3882 1040 c0 -14 2 -19 5 -12 2 6 2 18 0 25 -3 6 -5 1 -5 -13z"/>
<path d="M3746 1041 c-4 -7 -5 -15 -2 -18 9 -9 19 4 14 18 -4 11 -6 11 -12 0z"/>
<path d="M4682 1030 c0 -14 2 -19 5 -12 2 6 2 18 0 25 -3 6 -5 1 -5 -13z"/>
<path d="M4102 1010 c0 -19 2 -27 5 -17 2 9 2 25 0 35 -3 9 -5 1 -5 -18z"/>
<path d="M4642 1020 c0 -14 2 -19 5 -12 2 6 2 18 0 25 -3 6 -5 1 -5 -13z"/>
<path d="M4732 1010 c0 -19 2 -27 5 -17 2 9 2 25 0 35 -3 9 -5 1 -5 -18z"/>
<path d="M3832 1005 c0 -16 2 -22 5 -12 2 9 2 23 0 30 -3 6 -5 -1 -5 -18z"/>
<path d="M3876 983 c-13 -33 -19 -343 -7 -343 7 0 11 30 12 88 0 48 2 129 3
180 2 50 3 92 1 92 -2 0 -6 -8 -9 -17z"/>
<path d="M4772 955 c0 -16 2 -22 5 -12 2 9 2 23 0 30 -3 6 -5 -1 -5 -18z"/>
<path d="M3827 938 c-3 -13 -7 -97 -8 -188 -1 -91 -5 -200 -9 -242 -4 -43 -4
-93 0 -110 l7 -33 6 45 c8 56 20 550 14 550 -3 0 -7 -10 -10 -22z"/>
<path d="M4321 924 c0 -11 3 -14 6 -6 3 7 2 16 -1 19 -3 4 -6 -2 -5 -13z"/>
<path d="M4501 924 c0 -11 3 -14 6 -6 3 7 2 16 -1 19 -3 4 -6 -2 -5 -13z"/>
<path d="M4545 930 c-3 -5 -1 -10 4 -10 6 0 11 5 11 10 0 6 -2 10 -4 10 -3 0
-8 -4 -11 -10z"/>
<path d="M4773 885 c0 -22 2 -30 4 -17 2 12 2 30 0 40 -3 9 -5 -1 -4 -23z"/>
<path d="M3910 794 c0 -43 -2 -137 -5 -209 -3 -92 -1 -117 5 -85 10 50 15 359
6 368 -3 3 -6 -30 -6 -74z"/>
<path d="M4903 775 c0 -38 2 -53 4 -32 2 20 2 52 0 70 -2 17 -4 1 -4 -38z"/>
<path d="M4801 804 c0 -11 3 -14 6 -6 3 7 2 16 -1 19 -3 4 -6 -2 -5 -13z"/>
<path d="M4861 804 c0 -11 3 -14 6 -6 3 7 2 16 -1 19 -3 4 -6 -2 -5 -13z"/>
<path d="M4760 770 c0 -18 4 -29 10 -25 6 3 10 15 10 25 0 10 -4 22 -10 25 -6
4 -10 -7 -10 -25z"/>
<path d="M4991 764 c0 -11 3 -14 6 -6 3 7 2 16 -1 19 -3 4 -6 -2 -5 -13z"/>
<path d="M4802 745 c0 -16 2 -22 5 -12 2 9 2 23 0 30 -3 6 -5 -1 -5 -18z"/>
<path d="M4850 716 c0 -31 6 -34 13 -6 3 11 1 23 -4 26 -5 3 -9 -6 -9 -20z"/>
<path d="M4993 675 c0 -38 2 -53 4 -32 2 20 2 52 0 70 -2 17 -4 1 -4 -38z"/>
<path d="M3951 714 c0 -11 3 -14 6 -6 3 7 2 16 -1 19 -3 4 -6 -2 -5 -13z"/>
<path d="M4001 704 c0 -11 3 -14 6 -6 3 7 2 16 -1 19 -3 4 -6 -2 -5 -13z"/>
<path d="M4945 700 c-4 -12 -5 -24 -2 -27 3 -2 8 5 12 17 4 12 5 24 2 27 -3 2
-8 -5 -12 -17z"/>
<path d="M4803 675 c0 -22 2 -30 4 -17 2 12 2 30 0 40 -3 9 -5 -1 -4 -23z"/>
<path d="M4710 684 c0 -8 5 -12 10 -9 6 3 10 10 10 16 0 5 -4 9 -10 9 -5 0
-10 -7 -10 -16z"/>
<path d="M4763 630 c0 -36 2 -50 4 -32 2 17 2 47 0 65 -2 17 -4 3 -4 -33z"/>
<path d="M3953 640 c0 -25 2 -35 4 -22 2 12 2 32 0 45 -2 12 -4 2 -4 -23z"/>
<path d="M4712 640 c0 -14 2 -19 5 -12 2 6 2 18 0 25 -3 6 -5 1 -5 -13z"/>
<path d="M3858 593 c-3 -21 -6 -117 -7 -213 -1 -96 -4 -201 -7 -232 -5 -40 -3
-58 5 -58 8 0 11 51 13 168 0 92 3 194 5 227 7 111 0 188 -9 108z"/>
<path d="M4803 580 c0 -25 2 -35 4 -22 2 12 2 32 0 45 -2 12 -4 2 -4 -23z"/>
<path d="M3951 564 c0 -11 3 -14 6 -6 3 7 2 16 -1 19 -3 4 -6 -2 -5 -13z"/>
<path d="M4892 555 c0 -16 2 -22 5 -12 2 9 2 23 0 30 -3 6 -5 -1 -5 -18z"/>
<path d="M4987 566 c-4 -10 -5 -21 -2 -24 9 -9 17 6 13 25 -3 17 -4 17 -11 -1z"/>
<path d="M4847 537 c-11 -29 -9 -43 4 -30 6 6 9 19 7 29 -3 18 -4 18 -11 1z"/>
<path d="M4942 520 c0 -14 2 -19 5 -12 2 6 2 18 0 25 -3 6 -5 1 -5 -13z"/>
<path d="M5020 530 c0 -5 5 -10 11 -10 5 0 7 5 4 10 -3 6 -8 10 -11 10 -2 0
-4 -4 -4 -10z"/>
<path d="M4041 504 c0 -11 3 -14 6 -6 3 7 2 16 -1 19 -3 4 -6 -2 -5 -13z"/>
<path d="M4933 455 c0 -22 2 -30 4 -17 2 12 2 30 0 40 -3 9 -5 -1 -4 -23z"/>
<path d="M4891 454 c0 -11 3 -14 6 -6 3 7 2 16 -1 19 -3 4 -6 -2 -5 -13z"/>
<path d="M3808 321 c-5 -18 -8 -59 -7 -90 0 -47 2 -52 10 -32 5 14 9 54 7 90
-3 57 -4 61 -10 32z"/>
<path d="M9945 336 c-25 -19 -36 -17 115 -31 91 -8 80 -8 108 -6 26 1 30 21 4
21 -10 0 -23 5 -30 12 -6 6 -49 13 -94 16 -64 3 -87 0 -103 -12z"/>
<path d="M3891 254 c0 -11 3 -14 6 -6 3 7 2 16 -1 19 -3 4 -6 -2 -5 -13z"/>
<path d="M3891 144 c0 -11 3 -14 6 -6 3 7 2 16 -1 19 -3 4 -6 -2 -5 -13z"/>
<path d="M3802 70 c0 -14 2 -19 5 -12 2 6 2 18 0 25 -3 6 -5 1 -5 -13z"/>
<path d="M3841 40 l1 -45 8 35 c5 20 5 39 -1 45 -5 5 -9 -8 -8 -35z"/>
<path d="M3790 26 c0 -9 5 -16 10 -16 6 0 10 4 10 9 0 6 -4 13 -10 16 -5 3
-10 -1 -10 -9z"/>
<path d="M3701 14 c0 -11 3 -14 6 -6 3 7 2 16 -1 19 -3 4 -6 -2 -5 -13z"/>
</g>
</svg>
